<?xml version="1.0" encoding="UTF-8" standalone="no"?>
<!-- Created with Inkscape (http://www.inkscape.org/) -->

<svg
   xmlns:dc="http://purl.org/dc/elements/1.1/"
   xmlns:cc="http://creativecommons.org/ns#"
   xmlns:rdf="http://www.w3.org/1999/02/22-rdf-syntax-ns#"
   xmlns:svg="http://www.w3.org/2000/svg"
   xmlns="http://www.w3.org/2000/svg"
   xmlns:sodipodi="http://sodipodi.sourceforge.net/DTD/sodipodi-0.dtd"
   xmlns:inkscape="http://www.inkscape.org/namespaces/inkscape"
   version="1.1"
   id="svg2"
   xml:space="preserve"
   width="666.66669"
   height="666.66669"
   viewBox="0 0 666.66669 666.66669"
   sodipodi:docname="prvaikonica.svg"
   inkscape:version="0.92.1 r15371"><metadata
     id="metadata8"><rdf:RDF><cc:Work
         rdf:about=""><dc:format>image/svg+xml</dc:format><dc:type
           rdf:resource="http://purl.org/dc/dcmitype/StillImage" /><dc:title></dc:title></cc:Work></rdf:RDF></metadata><defs
     id="defs6" /><sodipodi:namedview
     pagecolor="#ffffff"
     bordercolor="#666666"
     borderopacity="1"
     objecttolerance="10"
     gridtolerance="10"
     guidetolerance="10"
     inkscape:pageopacity="0"
     inkscape:pageshadow="2"
     inkscape:window-width="1920"
     inkscape:window-height="1032"
     id="namedview4"
     showgrid="false"
     inkscape:measure-start="0,0"
     inkscape:measure-end="0,0"
     inkscape:zoom="1.272"
     inkscape:cx="333.33334"
     inkscape:cy="333.33334"
     inkscape:window-x="0"
     inkscape:window-y="0"
     inkscape:window-maximized="1"
     inkscape:current-layer="g10" /><g
     id="g10"
     inkscape:groupmode="layer"
     inkscape:label="ink_ext_XXXXXX"
     transform="matrix(1.3333333,0,0,-1.3333333,0,666.66667)"><rect
       style="fill:#e0e0e0;fill-opacity:1;stroke-width:0.75"
       id="rect5256"
       width="517.68872"
       height="503.53775"
       x="0"
       y="-500.00003"
       transform="scale(1,-1)"
       inkscape:label="pozadina"
       sodipodi:insensitive="true" /><path
       inkscape:connector-curvature="0"
       id="path26"
       style="fill:#4ac1ab;fill-opacity:1;fill-rule:nonzero;stroke:none;stroke-width:0.1"
       d="m 212.267,142.127 c 0,-1.823 1.466,-3.289 3.289,-3.289 h 3.219 l 8.223,-0.01 h 41.909 l 12.523,2.734 2.77,0.602 c 0.695,0.151 0.695,1.142 0,1.293 l -2.77,0.602 -12.523,2.734 h -41.909 -8.233 -3.219 c -1.803,0 -3.279,-1.476 -3.289,-3.289 l 0.01,-1.377" /><path
       inkscape:connector-curvature="0"
       id="path28"
       style="fill:#8a0736;fill-opacity:1;fill-rule:nonzero;stroke:none;stroke-width:0.1"
       d="m 215.556,138.838 c -1.823,0 -3.289,1.466 -3.289,3.289 l -0.01,1.377 c 0.01,1.813 1.486,3.289 3.289,3.289 h 3.219 l 0.01,-1.179 v -1.902 -1.902 l -0.01,-1.893 0.01,-1.079 h -3.219" /><path
       inkscape:connector-curvature="0"
       id="path30"
       style="fill:#4ac1ab;fill-opacity:1;fill-rule:nonzero;stroke:none;stroke-width:0.1"
       d="m 226.998,138.828 -8.223,0.01 -0.01,1.08 h 8.233 v -1.09" /><path
       inkscape:connector-curvature="0"
       id="path32"
       style="fill:#4ac1ab;fill-opacity:1;fill-rule:nonzero;stroke:none;stroke-width:0.1"
       d="m 218.775,141.81 v 1.902 h 8.213 l 0.01,-0.902 v -0.99 l -8.223,-0.01" /><path
       inkscape:connector-curvature="0"
       id="path34"
       style="fill:#4ac1ab;fill-opacity:1;fill-rule:nonzero;stroke:none;stroke-width:0.1"
       d="m 218.775,145.614 -0.01,1.179 h 8.233 l -0.01,-1.179 h -8.213" /><path
       inkscape:connector-curvature="0"
       id="path36"
       style="fill:#ffffff;fill-opacity:1;fill-rule:nonzero;stroke:none;stroke-width:0.1"
       d="m 218.775,145.614 h 8.213 v -1.902 h -8.213 v 1.902" /><path
       inkscape:connector-curvature="0"
       id="path38"
       style="fill:#ffffff;fill-opacity:1;fill-rule:nonzero;stroke:none;stroke-width:0.1"
       d="m 218.765,139.918 0.01,1.892 8.223,0.01 v -1.902 h -8.233" /><path
       inkscape:connector-curvature="0"
       id="path40"
       style="fill:#ffffff;fill-opacity:1;fill-rule:nonzero;stroke:none;stroke-width:0.1"
       d="m 226.998,138.828 v 3.983 h 41.909 v -3.983 h -41.909" /><path
       inkscape:connector-curvature="0"
       id="path42"
       style="fill:#4ac1ab;fill-opacity:1;fill-rule:nonzero;stroke:none;stroke-width:0.1"
       d="m 268.907,142.811 h -41.909 v -3.983 h 41.909 z m -1,-1 v -1.983 h -39.909 v 1.983 h 39.909" /><path
       inkscape:connector-curvature="0"
       id="path44"
       style="fill:#700526;fill-opacity:1;fill-rule:nonzero;stroke:none;stroke-width:0.1"
       d="m 284.2,142.164 -2.77,-0.602 v 2.497 l 2.77,-0.602 c 0.695,-0.151 0.695,-1.142 0,-1.293" /><path
       inkscape:connector-curvature="0"
       id="path46"
       style="fill:#ffffff;fill-opacity:1;fill-rule:nonzero;stroke:none;stroke-width:0.1"
       d="m 268.907,138.828 v 7.965 l 12.523,-2.734 v -2.497 l -12.523,-2.734" /><path
       inkscape:connector-curvature="0"
       id="path48"
       style="fill:#4ac1ab;fill-opacity:1;fill-rule:nonzero;stroke:none;stroke-width:0.1"
       d="m 268.907,146.793 v -7.965 l 12.523,2.734 v 2.497 z m 1,-1.242 10.523,-2.297 v -0.887 l -10.523,-2.297 v 2.741 2.74" /><path
       inkscape:connector-curvature="0"
       id="path50"
       style="fill:#8a0736;fill-opacity:1;fill-rule:nonzero;stroke:none;stroke-width:0.1"
       d="m 128.639,409.231 c -14.746,0 -26.744,-11.998 -26.744,-26.744 0,-14.747 11.998,-26.744 26.744,-26.744 14.747,0 26.744,11.997 26.744,26.744 0,14.746 -11.997,26.744 -26.744,26.744 z m 0,-56.304 c -16.299,0 -29.5589,13.26 -29.5589,29.56 0,16.299 13.2599,29.559 29.5589,29.559 16.299,0 29.559,-13.26 29.559,-29.559 0,-16.3 -13.26,-29.56 -29.559,-29.56" /><path
       inkscape:connector-curvature="0"
       id="path52"
       style="fill:#090e5c;fill-opacity:1;fill-rule:nonzero;stroke:none;stroke-width:0.1"
       d="m 128.639,368.411 c -7.774,0 -14.076,6.302 -14.076,14.076 0,7.774 6.302,14.076 14.076,14.076 7.774,0 14.076,-6.302 14.076,-14.076 0,-7.774 -6.302,-14.076 -14.076,-14.076 z m 0,38.005 c -13.216,0 -23.929,-10.714 -23.929,-23.929 0,-13.216 10.713,-23.929 23.929,-23.929 13.216,0 23.929,10.713 23.929,23.929 0,13.215 -10.713,23.929 -23.929,23.929" /><path
       inkscape:connector-curvature="0"
       id="path54"
       style="fill:#8a0736;fill-opacity:1;fill-rule:nonzero;stroke:none;stroke-width:0.1"
       d="m 135.677,382.487 c 0,-3.887 -3.151,-7.038 -7.038,-7.038 -3.887,0 -7.038,3.151 -7.038,7.038 0,3.887 3.151,7.038 7.038,7.038 3.887,0 7.038,-3.151 7.038,-7.038" /><path
       inkscape:connector-curvature="0"
       id="path56"
       style="fill:#4ac1ab;fill-opacity:1;fill-rule:nonzero;stroke:none;stroke-width:0.1"
       d="m 158.498,406.374 6.968,6.967 -4.977,0.996 -0.995,4.976 -6.967,-6.967 0.663,-3.318 -24.139,-24.139 v 1.167 c 0,0.777 -0.63,1.407 -1.407,1.407 -0.778,0 -1.408,-0.63 -1.408,-1.407 v -5.972 h 5.972 c 0.778,0 1.408,0.63 1.408,1.407 0,0.778 -0.63,1.408 -1.408,1.408 h -1.166 l 24.139,24.139 3.317,-0.664" /><path
       inkscape:connector-curvature="0"
       id="path58"
       style="fill:#4ac1ab;fill-opacity:1;fill-rule:nonzero;stroke:none;stroke-width:0.1"
       d="m 399.273,328.984 h -14.948 v 1 h 13.948 v 11.402 c 0,1.135 -0.533,2.168 -1.425,2.762 -1.891,1.259 -6.287,4.667 -6.287,9.131 0,4.463 4.396,7.871 6.287,9.13 0.892,0.594 1.425,1.627 1.425,2.762 v 11.402 h -13.948 v 1 h 14.948 v -12.402 c 0,-1.471 -0.699,-2.815 -1.872,-3.594 -1.756,-1.17 -5.84,-4.318 -5.84,-8.298 0,-3.981 4.084,-7.129 5.84,-8.299 1.173,-0.779 1.872,-2.123 1.872,-3.594 v -12.402" /><path
       inkscape:connector-curvature="0"
       id="path60"
       style="fill:#8a0736;fill-opacity:1;fill-rule:nonzero;stroke:none;stroke-width:0.1"
       d="m 393.749,344.565 c -2.029,1.959 -4.782,5.128 -4.782,8.714 0,3.585 2.151,6.754 4.18,8.714 0.725,0.7 1.136,1.913 1.136,3.178 v 1.668 h -9.958 -9.959 v -1.668 c 0,-1.265 0.411,-2.478 1.137,-3.178 2.029,-1.96 4.179,-5.129 4.179,-8.714 0,-3.586 -3.354,-6.755 -5.383,-8.714 -0.726,-0.701 -1.739,-1.914 -1.739,-3.179 V 331.29 h 11.765 11.764 v 10.096 c 0,1.265 -1.615,2.478 -2.34,3.179" /><path
       inkscape:connector-curvature="0"
       id="path62"
       style="fill:#4ac1ab;fill-opacity:1;fill-rule:nonzero;stroke:none;stroke-width:0.1"
       d="m 384.325,328.984 h -14.949 v 12.402 c 0,1.471 0.7,2.815 1.872,3.594 1.756,1.17 5.841,4.319 5.841,8.299 0,3.979 -4.085,7.128 -5.841,8.298 -1.172,0.779 -1.872,2.123 -1.872,3.594 v 12.402 h 14.949 v -1 h -13.949 v -11.402 c 0,-1.135 0.534,-2.168 1.426,-2.762 1.891,-1.259 6.287,-4.667 6.287,-9.13 0,-4.464 -4.396,-7.872 -6.287,-9.131 -0.892,-0.594 -1.426,-1.627 -1.426,-2.762 v -11.402 h 13.949 v -1" /><path
       inkscape:connector-curvature="0"
       id="path64"
       style="fill:#090e5c;fill-opacity:1;fill-rule:nonzero;stroke:none;stroke-width:0.1"
       d="m 402.511,376.165 h -36.372 v 3.674 h 36.372 v -3.674" /><path
       inkscape:connector-curvature="0"
       id="path66"
       style="fill:#090e5c;fill-opacity:1;fill-rule:nonzero;stroke:none;stroke-width:0.1"
       d="m 402.511,326.718 h -36.372 v 3.674 h 36.372 v -3.674" /><path
       inkscape:connector-curvature="0"
       id="path68"
       style="fill:#4ac1ab;fill-opacity:1;fill-rule:nonzero;stroke:none;stroke-width:0.1"
       d="m 67.5965,186.796 c -0.552,0 -1,0.447 -1,1 v 21.65 c 0,0.553 0.448,1 1,1 0.5523,0 1,-0.447 1,-1 v -21.65 c 0,-0.553 -0.4477,-1 -1,-1" /><path
       inkscape:connector-curvature="0"
       id="path70"
       style="fill:#4ac1ab;fill-opacity:1;fill-rule:nonzero;stroke:none;stroke-width:0.1"
       d="m 79.8934,186.796 c -0.3,0 -0.5977,0.135 -0.7946,0.391 l -12.2961,16.051 c -0.3359,0.439 -0.2523,1.067 0.186,1.403 0.4386,0.334 1.0676,0.252 1.4019,-0.186 l 12.2961,-16.051 c 0.3363,-0.438 0.2528,-1.066 -0.1859,-1.402 -0.1813,-0.139 -0.3949,-0.206 -0.6074,-0.206" /><path
       inkscape:connector-curvature="0"
       id="path72"
       style="fill:#4ac1ab;fill-opacity:1;fill-rule:nonzero;stroke:none;stroke-width:0.1"
       d="m 55.2988,186.796 c -0.2121,0 -0.4258,0.067 -0.6074,0.206 -0.4383,0.336 -0.5215,0.964 -0.1855,1.402 l 12.2968,16.051 c 0.3364,0.438 0.9633,0.52 1.4024,0.186 0.4379,-0.336 0.5215,-0.964 0.1855,-1.403 L 56.0938,187.187 c -0.1969,-0.256 -0.4942,-0.391 -0.795,-0.391" /><path
       inkscape:connector-curvature="0"
       id="path74"
       style="fill:#ffffff;fill-opacity:1;fill-rule:nonzero;stroke:none;stroke-width:0.1"
       d="M 101.256,209.446 H 33.9371 v 42.177 h 67.3189 v -42.177" /><path
       inkscape:connector-curvature="0"
       id="path76"
       style="fill:#4ac1ab;fill-opacity:1;fill-rule:nonzero;stroke:none;stroke-width:0.1"
       d="m 34.4367,209.946 h 66.3193 v 41.177 H 34.4367 Z m 67.3193,-1 H 33.4367 v 43.177 h 68.3193 v -43.177" /><path
       inkscape:connector-curvature="0"
       id="path78"
       style="fill:#8a0736;fill-opacity:1;fill-rule:nonzero;stroke:none;stroke-width:0.1"
       d="M 98.8523,211.969 H 36.3402 V 249.1 h 62.5121 v -37.131" /><path
       inkscape:connector-curvature="0"
       id="path80"
       style="fill:#ffffff;fill-opacity:1;fill-rule:nonzero;stroke:none;stroke-width:0.1"
       d="m 66.7469,228.823 c -0.7813,-2.768 -3.3047,-4.574 -6.043,-4.575 -0.566,0 -1.141,0.077 -1.7148,0.239 -2.768,0.782 -4.5746,3.305 -4.575,6.044 0,0.565 0.0769,1.141 0.239,1.714 0.7817,2.768 3.3047,4.575 6.0434,4.575 0.5656,0 1.141,-0.077 1.7148,-0.239 2.7676,-0.781 4.5742,-3.305 4.575,-6.043 -4e-4,-0.566 -0.0769,-1.141 -0.2394,-1.715 z m -8.6227,-7.391 v 0 l 0.0727,0.256 z m 12.9465,9.725 c -0.0945,1.574 -0.5469,3.086 -1.2984,4.434 l 1.2863,0.717 c -0.6449,1.157 -1.4824,2.206 -2.4844,3.097 l -0.9793,-1.102 c -1.1316,1.006 -2.4961,1.784 -4.0488,2.227 l 0.4012,1.41 -0.0184,0.005 c -1.0769,0.305 -2.1644,0.451 -3.2344,0.451 -0.2328,0 -0.4648,-0.007 -0.6957,-0.021 l 0.0871,-1.47 c -1.5742,-0.093 -3.0871,-0.544 -4.4355,-1.294 l -0.716,1.286 c -1.1571,-0.644 -2.2074,-1.48 -3.0989,-2.481 l 1.1012,-0.981 c -1.0062,-1.131 -1.7851,-2.494 -2.2297,-4.047 l -1.4097,0.403 -0.0078,-0.028 c -0.3051,-1.077 -0.4512,-2.164 -0.4508,-3.234 -4e-4,-0.23 0.0066,-0.459 0.0199,-0.686 l 1.4703,0.086 c 0.0918,-1.575 0.5414,-3.088 1.2906,-4.437 l -1.2871,-0.715 c 0.643,-1.158 1.4789,-2.209 2.4793,-3.101 l 0.9813,1.101 c 1.13,-1.008 2.4933,-1.788 4.0453,-2.233 l -0.4039,-1.41 0.0371,-0.011 c 1.0765,-0.304 2.1644,-0.45 3.2344,-0.45 0.239,0 0.4773,0.007 0.7144,0.022 l -0.089,1.469 c 1.5742,0.096 3.0855,0.55 4.4332,1.302 l 0.7179,-1.285 c 1.1563,0.645 2.2051,1.484 3.0949,2.486 l -1.1027,0.979 c 1.0047,1.132 1.782,2.497 2.2238,4.051 l 1.4102,-0.401 0.0023,0.009 c 0.3047,1.077 0.4508,2.165 0.4508,3.235 0,0.236 -0.007,0.471 -0.0211,0.705 l -1.4699,-0.088" /><path
       inkscape:connector-curvature="0"
       id="path82"
       style="fill:#ffffff;fill-opacity:1;fill-rule:nonzero;stroke:none;stroke-width:0.1"
       d="M 89.7559,240.682 Z" /><path
       inkscape:connector-curvature="0"
       id="path84"
       style="fill:#ffffff;fill-opacity:1;fill-rule:nonzero;stroke:none;stroke-width:0.1"
       d="m 80.9219,229.065 c -0.4477,0 -0.9024,0.061 -1.3571,0.19 -2.1906,0.617 -3.6199,2.615 -3.6203,4.781 0,0.447 0.061,0.902 0.1895,1.357 0.6172,2.19 2.6156,3.619 4.7812,3.62 0.4477,0 0.9024,-0.061 1.3575,-0.189 2.1898,-0.618 3.6191,-2.616 3.6199,-4.782 0,-0.447 -0.061,-0.902 -0.1895,-1.357 -0.6176,-2.19 -2.616,-3.619 -4.7812,-3.62 z m 8.1992,6.57 -0.9793,-0.191 c -0.1488,0.761 -0.4125,1.488 -0.7848,2.16 l 0.8707,0.482 c -0.6293,1.137 -1.523,2.129 -2.6269,2.875 l -0.5555,-0.822 c -0.6238,0.422 -1.3203,0.758 -2.0824,0.979 l 0.2738,0.948 -0.0433,0.012 c -0.7582,0.215 -1.5246,0.318 -2.2786,0.318 -0.5316,0 -1.057,-0.051 -1.5695,-0.15 l 0.1883,-0.979 c -0.7617,-0.146 -1.4906,-0.408 -2.1629,-0.779 l -0.4793,0.871 c -1.1387,-0.626 -2.1324,-1.517 -2.882,-2.619 l 0.8187,-0.557 c -0.4234,-0.623 -0.7586,-1.32 -0.9812,-2.081 l -0.9489,0.277 -0.0187,-0.065 c -0.2145,-0.758 -0.318,-1.525 -0.3176,-2.279 0,-0.524 0.0496,-1.041 0.1453,-1.547 l 0.9785,0.185 c 0.1446,-0.762 0.4047,-1.491 0.7731,-2.165 l -0.8715,-0.476 v 0 c 0.6234,-1.141 1.5117,-2.137 2.6113,-2.889 l 0.5586,0.816 c 0.6215,-0.425 1.3192,-0.76 2.0793,-0.984 l -0.2797,-0.95 v 0 L 78.6438,226 c 0.7582,-0.215 1.5246,-0.318 2.2785,-0.318 0.5468,0 1.0875,0.054 1.614,0.159 l -0.1937,0.979 c 0.7605,0.151 1.4871,0.417 2.1578,0.791 l 0.4848,-0.87 c 1.1351,0.632 2.1242,1.528 2.8679,2.634 l -0.8242,0.555 c 0.4199,0.625 0.7566,1.32 0.9754,2.083 l 0.9473,-0.271 0.0062,0.022 c 0.2145,0.758 0.3176,1.525 0.3176,2.279 0,0.539 -0.0527,1.072 -0.1543,1.592" /><path
       inkscape:connector-curvature="0"
       id="path86"
       style="fill:#8a0736;fill-opacity:1;fill-rule:nonzero;stroke:none;stroke-width:0.1"
       d="m 172.379,368.979 c 3.811,0 6.903,-3.086 6.903,-6.902 0,-3.811 -3.092,-6.903 -6.903,-6.903 -3.816,0 -6.902,3.092 -6.902,6.903 0,3.816 3.086,6.902 6.902,6.902" /><path
       inkscape:connector-curvature="0"
       id="path88"
       style="fill:#8a0736;fill-opacity:1;fill-rule:nonzero;stroke:none;stroke-width:0.1"
       d="m 184.133,348.57 v -11.616 c 0,0 -9.887,0 -16.838,0 -3.768,0 -6.675,0 -6.675,0 v 11.616 c 0,3.146 2.554,5.695 5.7,5.695 h 1.424 c 1.22,-1.107 2.853,-1.783 4.635,-1.783 1.783,0 3.41,0.676 4.636,1.783 h 1.424 c 3.146,0 5.694,-2.549 5.694,-5.695" /><path
       inkscape:connector-curvature="0"
       id="path90"
       style="fill:#8a0736;fill-opacity:1;fill-rule:nonzero;stroke:none;stroke-width:0.1"
       d="m 231.229,368.979 c 3.81,0 6.903,-3.086 6.903,-6.902 0,-3.811 -3.093,-6.903 -6.903,-6.903 -3.816,0 -6.903,3.092 -6.903,6.903 0,3.816 3.087,6.902 6.903,6.902" /><path
       inkscape:connector-curvature="0"
       id="path92"
       style="fill:#8a0736;fill-opacity:1;fill-rule:nonzero;stroke:none;stroke-width:0.1"
       d="m 242.983,348.57 v -11.616 c 0,0 -9.888,0 -16.838,0 -3.769,0 -6.676,0 -6.676,0 v 11.616 c 0,3.146 2.554,5.695 5.701,5.695 h 1.423 c 1.221,-1.107 2.854,-1.783 4.636,-1.783 1.783,0 3.41,0.676 4.636,1.783 h 1.423 c 3.147,0 5.695,-2.549 5.695,-5.695" /><path
       inkscape:connector-curvature="0"
       id="path94"
       style="fill:#090e5c;fill-opacity:1;fill-rule:nonzero;stroke:none;stroke-width:0.1"
       d="m 201.805,374.531 c 4.47,0 8.099,-3.622 8.099,-8.099 0,-4.471 -3.629,-8.1 -8.099,-8.1 -4.478,0 -8.1,3.629 -8.1,8.1 0,4.477 3.622,8.099 8.1,8.099" /><path
       inkscape:connector-curvature="0"
       id="path96"
       style="fill:#090e5c;fill-opacity:1;fill-rule:nonzero;stroke:none;stroke-width:0.1"
       d="m 215.596,350.584 v -13.63 c 0,0 -11.601,0 -19.757,0 -4.422,0 -7.833,0 -7.833,0 v 13.63 c 0,3.692 2.997,6.682 6.689,6.682 h 1.67 c 1.432,-1.299 3.348,-2.092 5.44,-2.092 2.091,0 4,0.793 5.439,2.092 h 1.671 c 3.691,0 6.681,-2.99 6.681,-6.682" /><path
       inkscape:connector-curvature="0"
       id="path98"
       style="fill:#4ac1ab;fill-opacity:1;fill-rule:nonzero;stroke:none;stroke-width:0.1"
       d="m 399.582,248.546 h -1 v 13.169 h 1 v -13.169" /><path
       inkscape:connector-curvature="0"
       id="path100"
       style="fill:#090e5c;fill-opacity:1;fill-rule:nonzero;stroke:none;stroke-width:0.1"
       d="m 399.082,305.069 c -14.329,0 -25.986,-11.657 -25.986,-25.986 0,-14.33 11.657,-25.987 25.986,-25.987 14.329,0 25.986,11.657 25.986,25.987 0,14.329 -11.657,25.986 -25.986,25.986 z m 0,-52.973 c -14.88,0 -26.986,12.106 -26.986,26.987 0,14.88 12.106,26.986 26.986,26.986 14.88,0 26.986,-12.106 26.986,-26.986 0,-14.881 -12.106,-26.987 -26.986,-26.987" /><path
       inkscape:connector-curvature="0"
       id="path102"
       style="fill:#8a0736;fill-opacity:1;fill-rule:nonzero;stroke:none;stroke-width:0.1"
       d="m 399.082,298.84 c -10.895,0 -19.758,-8.863 -19.758,-19.757 0,-10.895 8.863,-19.758 19.758,-19.758 10.894,0 19.757,8.863 19.757,19.758 0,10.894 -8.863,19.757 -19.757,19.757 z m 0,-42.515 c -12.549,0 -22.758,10.209 -22.758,22.758 0,12.548 10.209,22.757 22.758,22.757 12.548,0 22.757,-10.209 22.757,-22.757 0,-12.549 -10.209,-22.758 -22.757,-22.758" /><path
       inkscape:connector-curvature="0"
       id="path104"
       style="fill:#4ac1ab;fill-opacity:1;fill-rule:nonzero;stroke:none;stroke-width:0.1"
       d="m 399.582,275.655 h -1 v 7.135 h 1 v -7.135" /><path
       inkscape:connector-curvature="0"
       id="path106"
       style="fill:#4ac1ab;fill-opacity:1;fill-rule:nonzero;stroke:none;stroke-width:0.1"
       d="m 402.649,278.723 h -7.135 v 1 h 7.135 v -1" /><path
       inkscape:connector-curvature="0"
       id="path108"
       style="fill:#4ac1ab;fill-opacity:1;fill-rule:nonzero;stroke:none;stroke-width:0.1"
       d="m 399.582,296.213 h -1 v 12.971 h 1 v -12.971" /><path
       inkscape:connector-curvature="0"
       id="path110"
       style="fill:#4ac1ab;fill-opacity:1;fill-rule:nonzero;stroke:none;stroke-width:0.1"
       d="m 429.06,278.583 h -12.389 v 1 h 12.389 v -1" /><path
       inkscape:connector-curvature="0"
       id="path112"
       style="fill:#4ac1ab;fill-opacity:1;fill-rule:nonzero;stroke:none;stroke-width:0.1"
       d="m 382.109,278.583 h -13.622 v 1 h 13.622 v -1" /><path
       inkscape:connector-curvature="0"
       id="path114"
       style="fill:#1f2f36;fill-opacity:1;fill-rule:nonzero;stroke:none;stroke-width:0.1"
       d="M 359.585,181.488 H 126.381 v 140.257 c 0,2.547 2.064,4.612 4.611,4.612 h 223.982 c 2.546,0 4.611,-2.065 4.611,-4.612 V 181.488" /><path
       inkscape:connector-curvature="0"
       id="path116"
       style="fill:#090e5c;fill-opacity:1;fill-rule:nonzero;stroke:none;stroke-width:0.1"
       d="m 132.273,189.651 v 128.542 h 221.42 V 189.651 h -221.42" /><path
       inkscape:connector-curvature="0"
       id="path118"
       style="fill:#60cac7;fill-opacity:1;fill-rule:nonzero;stroke:none;stroke-width:0.1"
       d="m 132.273,311.589 v 6.604 h 221.42 v -6.604 h -221.42" /><path
       inkscape:connector-curvature="0"
       id="path120"
       style="fill:#388e89;fill-opacity:1;fill-rule:nonzero;stroke:none;stroke-width:0.1"
       d="m 139.73,313.167 h -3.25 v 3.251 h 3.25 v -3.251" /><path
       inkscape:connector-curvature="0"
       id="path122"
       style="fill:#388e89;fill-opacity:1;fill-rule:nonzero;stroke:none;stroke-width:0.1"
       d="m 154.498,314.189 h -9.009 v 1.207 h 9.009 v -1.207" /><path
       inkscape:connector-curvature="0"
       id="path124"
       style="fill:#388e89;fill-opacity:1;fill-rule:nonzero;stroke:none;stroke-width:0.1"
       d="m 174.35,314.189 h -9.009 v 1.207 h 9.009 v -1.207" /><path
       inkscape:connector-curvature="0"
       id="path126"
       style="fill:#388e89;fill-opacity:1;fill-rule:nonzero;stroke:none;stroke-width:0.1"
       d="m 194.202,314.189 h -9.009 v 1.207 h 9.009 v -1.207" /><path
       inkscape:connector-curvature="0"
       id="path128"
       style="fill:#388e89;fill-opacity:1;fill-rule:nonzero;stroke:none;stroke-width:0.1"
       d="m 214.055,314.189 h -9.009 v 1.207 h 9.009 v -1.207" /><path
       inkscape:connector-curvature="0"
       id="path130"
       style="fill:#388e89;fill-opacity:1;fill-rule:nonzero;stroke:none;stroke-width:0.1"
       d="m 349.563,314.189 h -9.009 v 1.207 h 9.009 v -1.207" /><path
       inkscape:connector-curvature="0"
       id="path132"
       style="fill:#2e7671;fill-opacity:1;fill-rule:nonzero;stroke:none;stroke-width:0.1"
       d="m 161.983,203.879 v 96.266 h 165.82 v -96.266 h -165.82" /><path
       inkscape:connector-curvature="0"
       id="path134"
       style="fill:#60cac7;fill-opacity:1;fill-rule:nonzero;stroke:none;stroke-width:0.1"
       d="m 160.072,205.79 v 96.265 H 325.893 V 205.79 H 160.072" /><path
       inkscape:connector-curvature="0"
       id="path136"
       style="fill:#fbfafa;fill-opacity:1;fill-rule:nonzero;stroke:none;stroke-width:0.1"
       d="m 244.02,217.326 h -74.174 v 48.833 h 74.174 v -48.833" /><path
       inkscape:connector-curvature="0"
       id="path138"
       style="fill:#2f3d47;fill-opacity:1;fill-rule:nonzero;stroke:none;stroke-width:0.1"
       d="M 374.024,181.488 H 111.942 v -3.668 c 0,-3.726 3.02,-6.747 6.746,-6.747 h 248.589 c 3.726,0 6.747,3.021 6.747,6.747 v 3.668" /><path
       inkscape:connector-curvature="0"
       id="path140"
       style="fill:#1f2f36;fill-opacity:1;fill-rule:nonzero;stroke:none;stroke-width:0.1"
       d="m 257.895,181.488 h -29.824 v -4.26 h 29.824 v 4.26" /><path
       inkscape:connector-curvature="0"
       id="path142"
       style="fill:#9cdedd;fill-opacity:1;fill-rule:nonzero;stroke:none;stroke-width:0.1"
       d="m 174.043,221.396 h 65.307 v 40.476 h -65.307 z m 66.307,-1 h -67.307 v 42.476 h 67.307 v -42.476" /><path
       inkscape:connector-curvature="0"
       id="path144"
       style="fill:#9cdedd;fill-opacity:1;fill-rule:nonzero;stroke:none;stroke-width:0.1"
       d="m 239.85,227.309 h -66.307 v 1 h 66.307 v -1" /><path
       inkscape:connector-curvature="0"
       id="path146"
       style="fill:#9cdedd;fill-opacity:1;fill-rule:nonzero;stroke:none;stroke-width:0.1"
       d="m 239.85,234.221 h -66.307 v 1 h 66.307 v -1" /><path
       inkscape:connector-curvature="0"
       id="path148"
       style="fill:#9cdedd;fill-opacity:1;fill-rule:nonzero;stroke:none;stroke-width:0.1"
       d="m 239.85,241.134 h -66.307 v 1 h 66.307 v -1" /><path
       inkscape:connector-curvature="0"
       id="path150"
       style="fill:#9cdedd;fill-opacity:1;fill-rule:nonzero;stroke:none;stroke-width:0.1"
       d="m 239.85,248.046 h -66.307 v 1 h 66.307 v -1" /><path
       inkscape:connector-curvature="0"
       id="path152"
       style="fill:#9cdedd;fill-opacity:1;fill-rule:nonzero;stroke:none;stroke-width:0.1"
       d="m 239.85,254.959 h -66.307 v 1 h 66.307 v -1" /><path
       inkscape:connector-curvature="0"
       id="path154"
       style="fill:#9cdedd;fill-opacity:1;fill-rule:nonzero;stroke:none;stroke-width:0.1"
       d="m 229.299,220.896 h -1 v 41.476 h 1 v -41.476" /><path
       inkscape:connector-curvature="0"
       id="path156"
       style="fill:#9cdedd;fill-opacity:1;fill-rule:nonzero;stroke:none;stroke-width:0.1"
       d="m 218.247,220.896 h -1 v 41.476 h 1 v -41.476" /><path
       inkscape:connector-curvature="0"
       id="path158"
       style="fill:#9cdedd;fill-opacity:1;fill-rule:nonzero;stroke:none;stroke-width:0.1"
       d="m 207.196,220.896 h -1 v 41.476 h 1 v -41.476" /><path
       inkscape:connector-curvature="0"
       id="path160"
       style="fill:#9cdedd;fill-opacity:1;fill-rule:nonzero;stroke:none;stroke-width:0.1"
       d="m 196.145,220.896 h -1 v 41.476 h 1 v -41.476" /><path
       inkscape:connector-curvature="0"
       id="path162"
       style="fill:#9cdedd;fill-opacity:1;fill-rule:nonzero;stroke:none;stroke-width:0.1"
       d="m 185.094,220.896 h -1 v 41.476 h 1 v -41.476" /><path
       inkscape:connector-curvature="0"
       id="path164"
       style="fill:#700526;fill-opacity:1;fill-rule:nonzero;stroke:none;stroke-width:0.1"
       d="m 201.136,225.844 -5.695,27.413 -6.315,-12.123 H 175.18 v 1 h 13.34 l 7.329,14.072 5.492,-26.433 5.078,15.911 5.333,-3.459 16.907,10.287 h 5.123 l 5.694,6.425 0.748,-0.663 -5.992,-6.762 h -5.293 l -17.203,-10.469 -4.762,3.09 -5.838,-18.289" /><path
       inkscape:connector-curvature="0"
       id="path166"
       style="fill:#fbfafa;fill-opacity:1;fill-rule:nonzero;stroke:none;stroke-width:0.1"
       d="M 325.893,293.152 H 160.072 v 8.903 h 165.821 v -8.903" /><path
       inkscape:connector-curvature="0"
       id="path168"
       style="fill:#700526;fill-opacity:1;fill-rule:nonzero;stroke:none;stroke-width:0.1"
       d="m 316.99,293.152 h 8.903 v 8.903 h -8.903 v -8.903" /><path
       inkscape:connector-curvature="0"
       id="path170"
       style="fill:#fbfafa;fill-opacity:1;fill-rule:nonzero;stroke:none;stroke-width:0.1"
       d="m 319.602,295.411 -0.353,0.353 4.032,4.032 0.353,-0.354 -4.032,-4.031" /><path
       inkscape:connector-curvature="0"
       id="path172"
       style="fill:#fbfafa;fill-opacity:1;fill-rule:nonzero;stroke:none;stroke-width:0.1"
       d="m 323.281,295.411 -4.032,4.031 0.353,0.354 4.032,-4.032 -0.353,-0.353" /><g
       id="g174"><text
         id="text178"
         style="font-variant:normal;font-weight:normal;font-size:17.14380074px;font-family:BebasNeue;-inkscape-font-specification:BebasNeue;writing-mode:lr-tb;fill:#fbfafa;fill-opacity:1;fill-rule:nonzero;stroke:none"
         transform="matrix(1,0,0,-1,186.684,273.193)"><tspan
           id="tspan176"
           sodipodi:role="line"
           y="0"
           x="0">WEB DESIGN</tspan></text>
</g><path
       inkscape:connector-curvature="0"
       id="path180"
       style="fill:#9cdedd;fill-opacity:1;fill-rule:nonzero;stroke:none;stroke-width:0.1"
       d="m 313.059,260.847 h -61.128 v 2.711 h 61.128 v -2.711" /><path
       inkscape:connector-curvature="0"
       id="path182"
       style="fill:#9cdedd;fill-opacity:1;fill-rule:nonzero;stroke:none;stroke-width:0.1"
       d="m 313.059,254.216 h -61.128 v 2.712 h 61.128 v -2.712" /><path
       inkscape:connector-curvature="0"
       id="path184"
       style="fill:#9cdedd;fill-opacity:1;fill-rule:nonzero;stroke:none;stroke-width:0.1"
       d="m 313.059,239.6 h -61.128 v 2.711 h 61.128 V 239.6" /><path
       inkscape:connector-curvature="0"
       id="path186"
       style="fill:#9cdedd;fill-opacity:1;fill-rule:nonzero;stroke:none;stroke-width:0.1"
       d="m 313.059,232.97 h -61.128 v 2.711 h 61.128 v -2.711" /><path
       inkscape:connector-curvature="0"
       id="path188"
       style="fill:#9cdedd;fill-opacity:1;fill-rule:nonzero;stroke:none;stroke-width:0.1"
       d="m 313.059,226.339 h -61.128 v 2.712 h 61.128 v -2.712" /><path
       inkscape:connector-curvature="0"
       id="path190"
       style="fill:#9cdedd;fill-opacity:1;fill-rule:nonzero;stroke:none;stroke-width:0.1"
       d="m 292.918,219.709 h -40.987 v 2.711 h 40.987 v -2.711" /><path
       inkscape:connector-curvature="0"
       id="path192"
       style="fill:#9cdedd;fill-opacity:1;fill-rule:nonzero;stroke:none;stroke-width:0.1"
       d="m 313.059,247.586 h -61.128 v 2.711 h 61.128 v -2.711" /><path
       inkscape:connector-curvature="0"
       id="path194"
       style="fill:#60cac7;fill-opacity:1;fill-rule:nonzero;stroke:none;stroke-width:0.1"
       d="m 200.638,296.225 h -34.746 v 2.757 h 34.746 v -2.757" /><path
       inkscape:connector-curvature="0"
       id="path196"
       style="fill:#090e5c;fill-opacity:1;fill-rule:nonzero;stroke:none;stroke-width:0.1"
       d="m 419.544,179.246 c -14.329,0 -25.986,-11.657 -25.986,-25.986 0,-14.329 11.657,-25.987 25.986,-25.987 14.329,0 25.987,11.658 25.987,25.987 0,14.329 -11.658,25.986 -25.987,25.986 z m 0,-52.973 c -14.88,0 -26.986,12.106 -26.986,26.987 0,14.88 12.106,26.986 26.986,26.986 14.881,0 26.987,-12.106 26.987,-26.986 0,-14.881 -12.106,-26.987 -26.987,-26.987" /><path
       inkscape:connector-curvature="0"
       id="path198"
       style="fill:#8a0736;fill-opacity:1;fill-rule:nonzero;stroke:none;stroke-width:0.1"
       d="m 419.544,173.017 c -10.894,0 -19.758,-8.864 -19.758,-19.757 0,-10.895 8.864,-19.758 19.758,-19.758 10.894,0 19.758,8.863 19.758,19.758 0,10.893 -8.864,19.757 -19.758,19.757 z m 0,-42.515 c -12.549,0 -22.758,10.209 -22.758,22.758 0,12.548 10.209,22.757 22.758,22.757 12.549,0 22.758,-10.209 22.758,-22.757 0,-12.549 -10.209,-22.758 -22.758,-22.758" /><path
       inkscape:connector-curvature="0"
       id="path200"
       style="fill:#090e5c;fill-opacity:1;fill-rule:nonzero;stroke:none;stroke-width:0.1"
       d="m 414.166,145.76 -2.121,2.121 5.999,6 v 13.504 h 3 v -14.746 l -6.878,-6.879" /><path
       inkscape:connector-curvature="0"
       id="path202"
       style="fill:#ba7e56;fill-opacity:1;fill-rule:nonzero;stroke:none;stroke-width:0.1"
       d="m 173.015,87.391 h -31.232 l -0.009,67.991 h 31.232 l 0.009,-67.991" /><path
       inkscape:connector-curvature="0"
       id="path204"
       style="fill:#364753;fill-opacity:1;fill-rule:nonzero;stroke:none;stroke-width:0.1"
       d="M 173.387,86.0551 H 141.4 c -1.486,0 -2.69,1.2039 -2.69,2.6898 v 65.2521 c 0,1.485 1.204,2.69 2.69,2.69 h 31.987 c 1.485,0 2.69,-1.205 2.69,-2.69 V 88.7449 c 0,-1.4859 -1.205,-2.6898 -2.69,-2.6898" /><path
       inkscape:connector-curvature="0"
       id="path206"
       style="fill:#090e5c;fill-opacity:1;fill-rule:nonzero;stroke:none;stroke-width:0.1"
       d="M 139.555,153.34 V 89.402 h 35.68 v 63.938 h -35.68" /><path
       inkscape:connector-curvature="0"
       id="path208"
       style="fill:#fbfafa;fill-opacity:1;fill-rule:nonzero;stroke:none;stroke-width:0.1"
       d="m 159.342,151.635 h -3.898 v 0.867 h 3.898 v -0.867" /><path
       inkscape:connector-curvature="0"
       id="path210"
       style="fill:#fbfafa;fill-opacity:1;fill-rule:nonzero;stroke:none;stroke-width:0.1"
       d="m 173.852,151.635 h -3.898 v 0.867 h 3.898 v -0.867" /><path
       inkscape:connector-curvature="0"
       id="path212"
       style="fill:#fbfafa;fill-opacity:1;fill-rule:nonzero;stroke:none;stroke-width:0.1"
       d="m 141.238,151.635 h -0.303 v 0.867 h 0.303 v -0.867" /><path
       inkscape:connector-curvature="0"
       id="path214"
       style="fill:#fbfafa;fill-opacity:1;fill-rule:nonzero;stroke:none;stroke-width:0.1"
       d="m 142.555,151.635 h -0.659 v 0.867 h 0.659 z m 1.316,0 h -0.658 v 0.867 h 0.658 v -0.867" /><path
       inkscape:connector-curvature="0"
       id="path216"
       style="fill:#fbfafa;fill-opacity:1;fill-rule:nonzero;stroke:none;stroke-width:0.1"
       d="m 144.833,151.635 h -0.303 v 0.867 h 0.303 v -0.867" /><path
       inkscape:connector-curvature="0"
       id="path218"
       style="fill:#fbfafa;fill-opacity:1;fill-rule:nonzero;stroke:none;stroke-width:0.1"
       d="m 171.903,141.836 h -29.019 v 4.44 h 29.019 v -4.44" /><path
       inkscape:connector-curvature="0"
       id="path220"
       style="fill:#eae7d7;fill-opacity:1;fill-rule:nonzero;stroke:none;stroke-width:0.1"
       d="m 166.755,142.335 h -23.228 v 3.441 h 23.228 v -3.441" /><path
       inkscape:connector-curvature="0"
       id="path222"
       style="fill:#eae7d7;fill-opacity:1;fill-rule:nonzero;stroke:none;stroke-width:0.1"
       d="m 170.741,144.056 c 0,-0.688 -0.557,-1.245 -1.245,-1.245 -0.688,0 -1.245,0.557 -1.245,1.245 0,0.687 0.557,1.245 1.245,1.245 0.688,0 1.245,-0.558 1.245,-1.245" /><path
       inkscape:connector-curvature="0"
       id="path224"
       style="fill:#f1542b;fill-opacity:1;fill-rule:nonzero;stroke:none;stroke-width:0.1"
       d="m 147.685,111.105 c 0,-1.546 -1.253,-2.799 -2.8,-2.799 -1.546,0 -2.799,1.253 -2.799,2.799 0,1.547 1.253,2.8 2.799,2.8 1.547,0 2.8,-1.253 2.8,-2.8" /><path
       inkscape:connector-curvature="0"
       id="path226"
       style="fill:#f1ab48;fill-opacity:1;fill-rule:nonzero;stroke:none;stroke-width:0.1"
       d="m 156.024,111.105 c 0,-1.546 -1.254,-2.799 -2.8,-2.799 -1.546,0 -2.8,1.253 -2.8,2.799 0,1.547 1.254,2.8 2.8,2.8 1.546,0 2.8,-1.253 2.8,-2.8" /><path
       inkscape:connector-curvature="0"
       id="path228"
       style="fill:#60cac7;fill-opacity:1;fill-rule:nonzero;stroke:none;stroke-width:0.1"
       d="m 172.701,111.105 c 0,-1.546 -1.254,-2.799 -2.8,-2.799 -1.546,0 -2.799,1.253 -2.799,2.799 0,1.547 1.253,2.8 2.799,2.8 1.546,0 2.8,-1.253 2.8,-2.8" /><path
       inkscape:connector-curvature="0"
       id="path230"
       style="fill:#d6cd9a;fill-opacity:1;fill-rule:nonzero;stroke:none;stroke-width:0.1"
       d="m 164.362,111.105 c 0,-1.546 -1.253,-2.799 -2.799,-2.799 -1.547,0 -2.8,1.253 -2.8,2.799 0,1.547 1.253,2.8 2.8,2.8 1.546,0 2.799,-1.253 2.799,-2.8" /><path
       inkscape:connector-curvature="0"
       id="path232"
       style="fill:#7e5437;fill-opacity:1;fill-rule:nonzero;stroke:none;stroke-width:0.1"
       d="m 147.685,102.618 c 0,-1.546 -1.253,-2.8 -2.8,-2.8 -1.546,0 -2.799,1.254 -2.799,2.8 0,1.546 1.253,2.799 2.799,2.799 1.547,0 2.8,-1.253 2.8,-2.799" /><path
       inkscape:connector-curvature="0"
       id="path234"
       style="fill:#60cac7;fill-opacity:1;fill-rule:nonzero;stroke:none;stroke-width:0.1"
       d="m 156.024,102.618 c 0,-1.546 -1.254,-2.8 -2.8,-2.8 -1.546,0 -2.8,1.254 -2.8,2.8 0,1.546 1.254,2.799 2.8,2.799 1.546,0 2.8,-1.253 2.8,-2.799" /><path
       inkscape:connector-curvature="0"
       id="path236"
       style="fill:#f1542b;fill-opacity:1;fill-rule:nonzero;stroke:none;stroke-width:0.1"
       d="m 172.701,102.618 c 0,-1.546 -1.254,-2.8 -2.8,-2.8 -1.546,0 -2.799,1.254 -2.799,2.8 0,1.546 1.253,2.799 2.799,2.799 1.546,0 2.8,-1.253 2.8,-2.799" /><path
       inkscape:connector-curvature="0"
       id="path238"
       style="fill:#f1ab48;fill-opacity:1;fill-rule:nonzero;stroke:none;stroke-width:0.1"
       d="m 164.362,102.618 c 0,-1.546 -1.253,-2.8 -2.799,-2.8 -1.547,0 -2.8,1.254 -2.8,2.8 0,1.546 1.253,2.799 2.8,2.799 1.546,0 2.799,-1.253 2.799,-2.799" /><path
       inkscape:connector-curvature="0"
       id="path240"
       style="fill:#eae7d7;fill-opacity:1;fill-rule:nonzero;stroke:none;stroke-width:0.1"
       d="m 147.685,94.1301 c 0,-1.5461 -1.253,-2.7992 -2.8,-2.7992 -1.546,0 -2.799,1.2531 -2.799,2.7992 0,1.5469 1.253,2.8 2.799,2.8 1.547,0 2.8,-1.2531 2.8,-2.8" /><path
       inkscape:connector-curvature="0"
       id="path242"
       style="fill:#eae7d7;fill-opacity:1;fill-rule:nonzero;stroke:none;stroke-width:0.1"
       d="m 156.024,94.1301 c 0,-1.5461 -1.254,-2.7992 -2.8,-2.7992 -1.546,0 -2.8,1.2531 -2.8,2.7992 0,1.5469 1.254,2.8 2.8,2.8 1.546,0 2.8,-1.2531 2.8,-2.8" /><path
       inkscape:connector-curvature="0"
       id="path244"
       style="fill:#eae7d7;fill-opacity:1;fill-rule:nonzero;stroke:none;stroke-width:0.1"
       d="m 172.701,94.1301 c 0,-1.5461 -1.254,-2.7992 -2.8,-2.7992 -1.546,0 -2.799,1.2531 -2.799,2.7992 0,1.5469 1.253,2.8 2.799,2.8 1.546,0 2.8,-1.2531 2.8,-2.8" /><path
       inkscape:connector-curvature="0"
       id="path246"
       style="fill:#eae7d7;fill-opacity:1;fill-rule:nonzero;stroke:none;stroke-width:0.1"
       d="m 164.362,94.1301 c 0,-1.5461 -1.253,-2.7992 -2.799,-2.7992 -1.547,0 -2.8,1.2531 -2.8,2.7992 0,1.5469 1.253,2.8 2.8,2.8 1.546,0 2.799,-1.2531 2.799,-2.8" /><path
       inkscape:connector-curvature="0"
       id="path248"
       style="fill:#090e5c;fill-opacity:1;fill-rule:nonzero;stroke:none;stroke-width:0.1"
       d="m 325.509,153.875 h 34.7672 v 3.16211 H 325.509 Z" /><path
       inkscape:connector-curvature="0"
       id="path250"
       style="fill:#090e5c;fill-opacity:1;fill-rule:nonzero;stroke:none;stroke-width:0.1"
       d="m 325.509,146.96 h 34.7672 v 3.16172 H 325.509 Z" /><path
       inkscape:connector-curvature="0"
       id="path252"
       style="fill:#8a0736;fill-opacity:1;fill-rule:nonzero;stroke:none;stroke-width:0.1"
       d="m 309.843,152.122 4.166,-4.55 6.89,8.207 -2.422,2.033 -4.571,-5.445 -1.731,1.89 -2.332,-2.135 v 0" /><path
       inkscape:connector-curvature="0"
       id="path254"
       style="fill:#090e5c;fill-opacity:1;fill-rule:nonzero;stroke:none;stroke-width:0.1"
       d="m 325.509,140.045 h 34.7672 v 3.16211 H 325.509 Z" /><path
       inkscape:connector-curvature="0"
       id="path256"
       style="fill:#090e5c;fill-opacity:1;fill-rule:nonzero;stroke:none;stroke-width:0.1"
       d="m 325.509,133.13 h 20.702 v 3.16211 h -20.702 z" /><path
       inkscape:connector-curvature="0"
       id="path258"
       style="fill:#8a0736;fill-opacity:1;fill-rule:nonzero;stroke:none;stroke-width:0.1"
       d="m 287.706,120.429 -13.408,7.742 v -15.483 z" /><path
       inkscape:connector-curvature="0"
       id="path260"
       style="fill:#8a0736;fill-opacity:1;fill-rule:nonzero;stroke:none;stroke-width:0.1"
       d="m 272.979,120.429 -13.408,7.742 v -15.483 z" /><path
       inkscape:connector-curvature="0"
       id="path262"
       style="fill:#4ac1ab;fill-opacity:1;fill-rule:nonzero;stroke:none;stroke-width:0.1"
       d="m 342.734,394.75 h 14.293 l 7.624,9.625 v 19.337 h -21.917 z m 14.535,-1 h -15.035 c -0.276,0 -0.5,0.223 -0.5,0.5 v 29.962 c 0,0.276 0.224,0.5 0.5,0.5 h 22.917 c 0.277,0 0.5,-0.224 0.5,-0.5 v -20.01 c 0,-0.113 -0.038,-0.222 -0.108,-0.311 l -7.882,-9.952 c -0.095,-0.12 -0.239,-0.189 -0.392,-0.189" /><path
       inkscape:connector-curvature="0"
       id="path264"
       style="fill:#4ac1ab;fill-opacity:1;fill-rule:nonzero;stroke:none;stroke-width:0.1"
       d="m 357.769,403.702 v -8.016 l 6.349,8.016 z m -0.5,-9.952 c -0.055,0 -0.11,0.008 -0.165,0.027 -0.2,0.07 -0.335,0.26 -0.335,0.473 v 9.952 c 0,0.276 0.224,0.5 0.5,0.5 h 7.882 c 0.192,0 0.367,-0.11 0.45,-0.282 0.084,-0.174 0.061,-0.379 -0.058,-0.529 l -7.882,-9.952 c -0.097,-0.122 -0.242,-0.189 -0.392,-0.189" /><path
       inkscape:connector-curvature="0"
       id="path266"
       style="fill:#700526;fill-opacity:1;fill-rule:nonzero;stroke:none;stroke-width:0.1"
       d="m 361.21,417.857 h -14.787 v 2 h 14.787 v -2" /><path
       inkscape:connector-curvature="0"
       id="path268"
       style="fill:#700526;fill-opacity:1;fill-rule:nonzero;stroke:none;stroke-width:0.1"
       d="m 361.21,413.804 h -14.787 v 2 h 14.787 v -2" /><path
       inkscape:connector-curvature="0"
       id="path270"
       style="fill:#700526;fill-opacity:1;fill-rule:nonzero;stroke:none;stroke-width:0.1"
       d="m 358.139,409.75 h -11.716 v 2 h 11.716 v -2" /><path
       inkscape:connector-curvature="0"
       id="path272"
       style="fill:#4ac1ab;fill-opacity:1;fill-rule:nonzero;stroke:none;stroke-width:0.1"
       d="m 309.515,406.298 -13.408,7.741 v -15.482 z" /><path
       inkscape:connector-curvature="0"
       id="path274"
       style="fill:#4ac1ab;fill-opacity:1;fill-rule:nonzero;stroke:none;stroke-width:0.1"
       d="M 298.208,402.148 H 283.98 v 8.3 h 14.228 v -8.3" /><path
       inkscape:connector-curvature="0"
       id="path276"
       style="fill:#090e5c;fill-opacity:1;fill-rule:nonzero;stroke:none;stroke-width:0.1"
       d="m 395.786,203.983 c -1.19,-4.214 -5.032,-6.965 -9.202,-6.966 -0.861,0 -1.737,0.117 -2.611,0.364 -4.214,1.19 -6.965,5.032 -6.966,9.202 0,0.861 0.118,1.737 0.365,2.611 1.189,4.214 5.031,6.965 9.201,6.966 0.861,0 1.737,-0.117 2.611,-0.364 4.214,-1.19 6.965,-5.032 6.966,-9.202 0,-0.861 -0.117,-1.737 -0.364,-2.611 z m -13.129,-11.254 v 0 l 0.11,0.389 z m 19.712,14.807 c -0.144,2.397 -0.833,4.7 -1.977,6.752 l 1.958,1.092 c -0.981,1.761 -2.257,3.359 -3.782,4.715 l -1.491,-1.678 c -1.724,1.532 -3.801,2.717 -6.165,3.391 l 0.611,2.147 -0.028,0.008 c -1.64,0.464 -3.296,0.686 -4.925,0.686 -0.354,0 -0.708,-0.01 -1.059,-0.031 l 0.132,-2.238 c -2.397,-0.142 -4.7,-0.829 -6.753,-1.972 l -1.09,1.959 c -1.762,-0.98 -3.361,-2.254 -4.719,-3.778 l 1.677,-1.493 c -1.533,-1.722 -2.719,-3.798 -3.395,-6.162 l -2.147,0.613 -0.012,-0.042 c -0.464,-1.64 -0.686,-3.296 -0.686,-4.925 0,-0.35 0.01,-0.698 0.03,-1.045 l 2.239,0.131 c 0.14,-2.397 0.825,-4.701 1.965,-6.755 l -1.96,-1.089 c 0.98,-1.762 2.252,-3.363 3.776,-4.721 l 1.494,1.676 c 1.72,-1.534 3.796,-2.722 6.159,-3.4 l -0.615,-2.147 0.056,-0.016 c 1.64,-0.464 3.296,-0.686 4.925,-0.686 0.364,0 0.727,0.011 1.088,0.033 l -0.136,2.238 c 2.397,0.145 4.699,0.836 6.75,1.982 l 1.094,-1.957 c 1.76,0.983 3.357,2.259 4.712,3.786 l -1.679,1.49 c 1.53,1.724 2.714,3.802 3.386,6.168 l 2.147,-0.61 0.004,0.014 c 0.464,1.64 0.687,3.296 0.686,4.925 0,0.359 -0.011,0.717 -0.032,1.074 l -2.238,-0.135" /><path
       inkscape:connector-curvature="0"
       id="path278"
       style="fill:#211d1d;fill-opacity:1;fill-rule:nonzero;stroke:none;stroke-width:0.1"
       d="M 430.82,222.039 Z" /><path
       inkscape:connector-curvature="0"
       id="path280"
       style="fill:#8a0736;fill-opacity:1;fill-rule:nonzero;stroke:none;stroke-width:0.1"
       d="m 417.368,204.351 c -0.681,0 -1.373,0.093 -2.066,0.289 -3.335,0.94 -5.511,3.983 -5.512,7.28 0,0.681 0.093,1.374 0.289,2.066 0.94,3.335 3.982,5.511 7.28,5.513 0.681,-0.001 1.374,-0.093 2.066,-0.289 3.335,-0.94 5.511,-3.983 5.512,-7.28 0,-0.681 -0.092,-1.374 -0.288,-2.067 -0.94,-3.334 -3.983,-5.511 -7.281,-5.512 z m 12.485,10.003 -1.491,-0.291 c -0.226,1.16 -0.628,2.267 -1.195,3.29 l 1.326,0.734 c -0.958,1.731 -2.319,3.241 -4,4.377 l -0.846,-1.251 c -0.95,0.643 -2.01,1.154 -3.17,1.49 l 0.417,1.444 -0.067,0.019 c -1.154,0.326 -2.321,0.483 -3.469,0.483 -0.81,0 -1.61,-0.078 -2.39,-0.228 l 0.287,-1.49 c -1.16,-0.223 -2.27,-0.623 -3.294,-1.186 l -0.729,1.326 c -1.734,-0.954 -3.247,-2.311 -4.389,-3.988 l 1.247,-0.848 c -0.644,-0.948 -1.155,-2.01 -1.494,-3.168 l -1.445,0.421 -0.028,-0.1 c -0.327,-1.154 -0.484,-2.321 -0.484,-3.469 0,-0.797 0.076,-1.586 0.222,-2.356 l 1.489,0.283 c 0.221,-1.161 0.617,-2.272 1.177,-3.297 l -1.326,-0.726 v 0 c 0.949,-1.736 2.302,-3.253 3.976,-4.399 l 0.85,1.243 c 0.947,-0.647 2.009,-1.157 3.166,-1.499 l -0.426,-1.446 v 0 l 0.133,-0.038 c 1.154,-0.327 2.321,-0.483 3.469,-0.483 0.833,0 1.656,0.082 2.458,0.241 l -0.295,1.492 c 1.158,0.229 2.264,0.634 3.285,1.203 l 0.739,-1.325 c 1.728,0.963 3.234,2.328 4.367,4.012 l -1.256,0.844 c 0.64,0.952 1.153,2.011 1.486,3.172 l 1.442,-0.412 0.01,0.033 c 0.326,1.155 0.483,2.322 0.483,3.469 0,0.822 -0.08,1.633 -0.235,2.424" /><path
       inkscape:connector-curvature="0"
       id="path282"
       style="fill:#8a0736;fill-opacity:1;fill-rule:nonzero;stroke:none;stroke-width:0.1"
       d="m 277.492,349.064 h -11.066 v 19.915 h 11.066 v -19.915" /><path
       inkscape:connector-curvature="0"
       id="path284"
       style="fill:#4ac1ab;fill-opacity:1;fill-rule:nonzero;stroke:none;stroke-width:0.1"
       d="M 293.986,349.064 H 282.92 v 28.938 h 11.066 v -28.938" /><path
       inkscape:connector-curvature="0"
       id="path286"
       style="fill:#60cac7;fill-opacity:1;fill-rule:nonzero;stroke:none;stroke-width:0.1"
       d="m 310.481,349.064 h -11.067 v 39.301 h 11.067 v -39.301" /><path
       inkscape:connector-curvature="0"
       id="path288"
       style="fill:#090e5c;fill-opacity:1;fill-rule:nonzero;stroke:none;stroke-width:0.1"
       d="m 326.975,349.064 h -11.067 v 50.162 h 11.067 v -50.162" /><path
       inkscape:connector-curvature="0"
       id="path290"
       style="fill:#4ac1ab;fill-opacity:1;fill-rule:nonzero;stroke:none;stroke-width:0.1"
       d="m 328.774,343.649 h -68.206 v 68.206 h 1 v -67.206 h 67.206 v -1" /><path
       inkscape:connector-curvature="0"
       id="path292"
       style="fill:#4ac1ab;fill-opacity:1;fill-rule:nonzero;stroke:none;stroke-width:0.1"
       d="m 75.9441,258.451 c -0.2761,0 -0.5,0.224 -0.5,0.5 v 114.631 h 18.0153 c 0.2765,0 0.5,-0.224 0.5,-0.5 0,-0.276 -0.2235,-0.5 -0.5,-0.5 H 76.4441 V 258.951 c 0,-0.276 -0.2234,-0.5 -0.5,-0.5" /><path
       inkscape:connector-curvature="0"
       id="path294"
       style="fill:#4ac1ab;fill-opacity:1;fill-rule:nonzero;stroke:none;stroke-width:0.1"
       d="m 93.3652,371.202 c 1.0383,0 1.8801,0.842 1.8801,1.88 0,1.038 -0.8418,1.88 -1.8801,1.88 -1.0379,0 -1.8797,-0.842 -1.8797,-1.88 0,-1.038 0.8418,-1.88 1.8797,-1.88" /><path
       inkscape:connector-curvature="0"
       id="path296"
       style="fill:#4ac1ab;fill-opacity:1;fill-rule:nonzero;stroke:none;stroke-width:0.1"
       d="m 342.898,345.514 h 6.165 v 6.165 h -6.165 z m 7.165,-1 h -8.165 v 8.165 h 8.165 v -8.165" /><path
       inkscape:connector-curvature="0"
       id="path298"
       style="fill:#4ac1ab;fill-opacity:1;fill-rule:nonzero;stroke:none;stroke-width:0.1"
       d="m 342.752,344.661 -0.707,0.707 7.164,7.164 0.707,-0.707 -7.164,-7.164" /><path
       inkscape:connector-curvature="0"
       id="path300"
       style="fill:#700526;fill-opacity:1;fill-rule:nonzero;stroke:none;stroke-width:0.1"
       d="m 354.768,345.514 h 6.165 v 6.165 h -6.165 z m 7.165,-1 h -8.165 v 8.165 h 8.165 v -8.165" /><path
       inkscape:connector-curvature="0"
       id="path302"
       style="fill:#090e5c;fill-opacity:1;fill-rule:nonzero;stroke:none;stroke-width:0.1"
       d="M 130.487,119.93 H 89.2559 v 75.063 c 0,0.277 0.2234,0.5 0.5,0.5 0.2761,0 0.5,-0.223 0.5,-0.5 V 120.93 h 40.2311 c 0.276,0 0.5,-0.224 0.5,-0.5 0,-0.277 -0.224,-0.5 -0.5,-0.5" /><path
       inkscape:connector-curvature="0"
       id="path304"
       style="fill:#090e5c;fill-opacity:1;fill-rule:nonzero;stroke:none;stroke-width:0.1"
       d="m 130.393,118.549 c 1.038,0 1.88,0.842 1.88,1.88 0,1.038 -0.842,1.88 -1.88,1.88 -1.038,0 -1.88,-0.842 -1.88,-1.88 0,-1.038 0.842,-1.88 1.88,-1.88" /><path
       inkscape:connector-curvature="0"
       id="path306"
       style="fill:#090e5c;fill-opacity:1;fill-rule:nonzero;stroke:none;stroke-width:0.1"
       d="m 251.864,119.93 h -69.807 c -0.277,0 -0.5,0.223 -0.5,0.5 0,0.276 0.223,0.5 0.5,0.5 h 69.807 c 0.277,0 0.5,-0.224 0.5,-0.5 0,-0.277 -0.223,-0.5 -0.5,-0.5" /><path
       inkscape:connector-curvature="0"
       id="path308"
       style="fill:#e0e0e0;fill-opacity:1;fill-rule:nonzero;stroke:none;stroke-width:0.1"
       d="m 251.758,122.309 c 1.038,0 1.88,-0.842 1.88,-1.88 0,-1.038 -0.842,-1.88 -1.88,-1.88 -1.038,0 -1.88,0.842 -1.88,1.88 0,1.038 0.842,1.88 1.88,1.88" /><path
       inkscape:connector-curvature="0"
       id="path310"
       style="fill:#090e5c;fill-opacity:1;fill-rule:nonzero;stroke:none;stroke-width:0.1"
       d="m 251.758,118.799 c -0.899,0 -1.63,0.732 -1.63,1.63 0,0.899 0.731,1.63 1.63,1.63 0.899,0 1.63,-0.731 1.63,-1.63 0,-0.898 -0.731,-1.63 -1.63,-1.63 -0.899,0 0.899,0 0,0 z m 0,3.76 c -1.175,0 -2.13,-0.955 -2.13,-2.13 0,-1.174 0.955,-2.13 2.13,-2.13 1.174,0 2.13,0.956 2.13,2.13 0,1.175 -0.956,2.13 -2.13,2.13 -1.175,0 1.174,0 0,0" /><path
       inkscape:connector-curvature="0"
       id="path312"
       style="fill:#090e5c;fill-opacity:1;fill-rule:nonzero;stroke:none;stroke-width:0.1"
       d="m 200.026,119.93 c -0.276,0 -0.5,0.223 -0.5,0.5 v 42.446 c 0,0.276 0.224,0.5 0.5,0.5 0.277,0 0.5,-0.224 0.5,-0.5 V 120.43 c 0,-0.277 -0.223,-0.5 -0.5,-0.5" /><path
       inkscape:connector-curvature="0"
       id="path314"
       style="fill:#090e5c;fill-opacity:1;fill-rule:nonzero;stroke:none;stroke-width:0.1"
       d="m 201.906,162.782 c 0,1.038 -0.842,1.88 -1.88,1.88 -1.038,0 -1.88,-0.842 -1.88,-1.88 0,-1.038 0.842,-1.88 1.88,-1.88 1.038,0 1.88,0.842 1.88,1.88" /><path
       inkscape:connector-curvature="0"
       id="path316"
       style="fill:#54c5af;fill-opacity:1;fill-rule:nonzero;stroke:none;stroke-width:0.1"
       d="m 205.359,397.163 c 0,0.976 0.792,1.767 1.767,1.767 0.976,0 1.768,-0.791 1.768,-1.767 0,-0.976 -0.792,-1.767 -1.768,-1.767 -0.975,0 -1.767,0.791 -1.767,1.767 z m 8.108,0 c 0,0.976 0.791,1.767 1.767,1.767 0.976,0 1.767,-0.791 1.767,-1.767 0,-0.976 -0.791,-1.767 -1.767,-1.767 -0.976,0 -1.767,0.791 -1.767,1.767 z m 8.107,0 c 0,0.976 0.791,1.767 1.767,1.767 0.976,0 1.767,-0.791 1.767,-1.767 0,-0.976 -0.791,-1.767 -1.767,-1.767 -0.976,0 -1.767,0.791 -1.767,1.767 z m -22.082,7.689 v -15.378 c 0,-1.964 1.591,-3.555 3.555,-3.555 h 4.606 v -4.604 l 4.604,4.604 h 15.164 c 1.964,0 3.555,1.591 3.555,3.555 v 15.378 c 0,1.963 -1.591,3.554 -3.555,3.554 h -24.374 c -1.964,0 -3.555,-1.591 -3.555,-3.554" /><path
       inkscape:connector-curvature="0"
       id="path318"
       style="fill:#4ac1ab;fill-opacity:1;fill-rule:nonzero;stroke:none;stroke-width:0.1"
       d="m 67.5965,286.89 c -0.2762,0 -0.5,0.223 -0.5,0.5 v 46.517 c 0,0.276 0.2238,0.5 0.5,0.5 0.2765,0 0.5,-0.224 0.5,-0.5 V 287.39 c 0,-0.277 -0.2235,-0.5 -0.5,-0.5" /><path
       inkscape:connector-curvature="0"
       id="path320"
       style="fill:#4ac1ab;fill-opacity:1;fill-rule:nonzero;stroke:none;stroke-width:0.1"
       d="m 65.7168,287.484 c 0,-1.039 0.8418,-1.88 1.8797,-1.88 1.0383,0 1.8801,0.841 1.8801,1.88 0,1.038 -0.8418,1.879 -1.8801,1.879 -1.0379,0 -1.8797,-0.841 -1.8797,-1.879" /><path
       inkscape:connector-curvature="0"
       id="path322"
       style="fill:#4ac1ab;fill-opacity:1;fill-rule:nonzero;stroke:none;stroke-width:0.1"
       d="m 59.248,296.463 c -0.2765,0 -0.5,0.223 -0.5,0.5 v 27.37 c 0,0.277 0.2235,0.5 0.5,0.5 0.2762,0 0.5,-0.223 0.5,-0.5 v -27.37 c 0,-0.277 -0.2238,-0.5 -0.5,-0.5" /><path
       inkscape:connector-curvature="0"
       id="path324"
       style="fill:#4ac1ab;fill-opacity:1;fill-rule:nonzero;stroke:none;stroke-width:0.1"
       d="m 57.368,297.057 c 0,-1.038 0.8418,-1.88 1.8797,-1.88 1.0382,0 1.88,0.842 1.88,1.88 0,1.038 -0.8418,1.88 -1.88,1.88 -1.0379,0 -1.8797,-0.842 -1.8797,-1.88" /><path
       inkscape:connector-curvature="0"
       id="path326"
       style="fill:#4ac1ab;fill-opacity:1;fill-rule:nonzero;stroke:none;stroke-width:0.1"
       d="m 34.4367,257.428 h 6.1649 v 6.164 h -6.1649 z m 7.1649,-1 h -8.1649 v 8.164 h 8.1649 v -8.164" /><path
       inkscape:connector-curvature="0"
       id="path328"
       style="fill:#4ac1ab;fill-opacity:1;fill-rule:nonzero;stroke:none;stroke-width:0.1"
       d="m 34.2906,256.574 -0.707,0.707 7.1644,7.164 0.7071,-0.707 -7.1645,-7.164" /><path
       inkscape:connector-curvature="0"
       id="path330"
       style="fill:#8a0736;fill-opacity:1;fill-rule:nonzero;stroke:none;stroke-width:0.1"
       d="m 46.307,257.428 h 6.1645 v 6.164 H 46.307 Z m 7.1645,-1 H 45.307 v 8.164 h 8.1645 v -8.164" /><path
       inkscape:connector-curvature="0"
       id="path332"
       style="fill:#4ac1ab;fill-opacity:1;fill-rule:nonzero;stroke:none;stroke-width:0.1"
       d="m 262.748,154.73 h 6.164 v 6.165 h -6.164 z m 7.164,-1 h -8.164 v 8.165 h 8.164 v -8.165" /><path
       inkscape:connector-curvature="0"
       id="path334"
       style="fill:#4ac1ab;fill-opacity:1;fill-rule:nonzero;stroke:none;stroke-width:0.1"
       d="m 262.602,153.876 -0.707,0.707 7.164,7.165 0.707,-0.707 -7.164,-7.165" /><path
       inkscape:connector-curvature="0"
       id="path336"
       style="fill:#8a0736;fill-opacity:1;fill-rule:nonzero;stroke:none;stroke-width:0.1"
       d="m 274.618,154.73 h 6.165 v 6.165 h -6.165 z m 7.165,-1 h -8.165 v 8.165 h 8.165 v -8.165" /><path
       inkscape:connector-curvature="0"
       id="path338"
       style="fill:#700526;fill-opacity:1;fill-rule:nonzero;stroke:none;stroke-width:0.1"
       d="m 223.905,429.442 h 6.165 v 6.164 h -6.165 z m 7.165,-1 h -8.165 v 8.164 h 8.165 v -8.164" /><path
       inkscape:connector-curvature="0"
       id="path340"
       style="fill:#e0e0e0;fill-opacity:1;fill-rule:nonzero;stroke:none;stroke-width:0.1"
       d="m 76.4441,395.847 h 6.1649 v 6.165 h -6.1649 z m 7.1649,-1 h -8.1649 v 8.165 h 8.1649 v -8.165" /><path
       inkscape:connector-curvature="0"
       id="path342"
       style="fill:#e0e0e0;fill-opacity:1;fill-rule:nonzero;stroke:none;stroke-width:0.1"
       d="m 76.4441,384.254 h 6.1649 v 6.165 h -6.1649 z m 7.1649,-1 h -8.1649 v 8.165 h 8.1649 v -8.165" /><path
       inkscape:connector-curvature="0"
       id="path344"
       style="fill:#8a0736;fill-opacity:1;fill-rule:nonzero;stroke:none;stroke-width:0.1"
       d="m 98.6426,129.3 h 6.1644 v 6.164 h -6.1644 z m 7.1644,-1 h -8.1644 v 8.164 h 8.1644 V 128.3" /><path
       inkscape:connector-curvature="0"
       id="path346"
       style="fill:#8a0736;fill-opacity:1;fill-rule:nonzero;stroke:none;stroke-width:0.1"
       d="m 98.6426,143.121 h 6.1644 v 6.165 h -6.1644 z m 7.1644,-1 h -8.1644 v 8.165 h 8.1644 v -8.165" /><path
       inkscape:connector-curvature="0"
       id="path348"
       style="fill:#8a0736;fill-opacity:1;fill-rule:nonzero;stroke:none;stroke-width:0.1"
       d="m 70.0793,114.75 c -3.2098,-3.209 -8.4324,-3.209 -11.6422,0.001 -3.2098,3.209 -3.2098,8.432 0,11.642 3.2098,3.209 8.432,3.209 11.6418,0 3.2098,-3.21 3.2102,-8.433 4e-4,-11.643 z m -16.434,14.243 c -3.9414,-4.932 -3.8805,-12.137 0.1352,-17.009 4.5621,-5.535 12.3761,-6.427 17.9902,-2.682 l 8.6621,-8.662 c 0.3656,-0.366 0.9582,-0.366 1.3238,0 l 2.4336,2.433 c 0.3657,0.366 0.3657,0.958 0,1.324 l -8.6621,8.662 c 3.5086,5.261 2.9465,12.453 -1.6918,17.091 -5.6425,5.643 -15.0652,5.257 -20.191,-1.157" /><path
       inkscape:connector-curvature="0"
       id="path350"
       style="fill:#54c5af;fill-opacity:1;fill-rule:nonzero;stroke:none;stroke-width:0.1"
       d="m 114.117,344.023 c -2.418,2.409 -5.737,3.9 -9.411,3.9 -0.494,0 -1.005,-0.026 -1.508,-0.087 -6.0234,-0.658 -10.9546,-5.529 -11.691,-11.526 -0.0695,-0.555 -0.1043,-1.109 -0.1043,-1.655 0,-4.273 2.0368,-8.311 5.5293,-10.833 1.4649,-1.057 2.6172,-2.453 3.397,-4.03 h 2.964 l -3.6137,12.297 5.0267,-3.024 5.035,3.024 -3.614,-12.297 h 2.99 c 0.797,1.586 1.976,2.998 3.492,4.116 3.38,2.496 5.408,6.509 5.408,10.712 0,3.666 -1.49,6.985 -3.9,9.403 z m -8.96,-16.709 -0.451,-0.268 -2.115,1.274 2.115,-7.202 2.123,7.202 z M 99.1164,316.8 h 11.1876 v 1.6 H 99.1164 Z m 0,-3.19 h 11.1876 v 1.599 H 99.1164 Z m 0.5137,-1.384 c -0.177,0 -0.3453,0.026 -0.5137,0.071 0.0176,-0.877 0.7262,-1.586 1.6126,-1.586 h 0.85 v -0.31 c 0,-0.673 0.54,-1.213 1.205,-1.213 h 3.844 c 0.673,0 1.213,0.54 1.213,1.213 v 0.31 h 0.851 c 0.877,0 1.594,0.709 1.612,1.586 -0.168,-0.045 -0.337,-0.071 -0.514,-0.071 H 99.6301" /><path
       inkscape:connector-curvature="0"
       id="path352"
       style="fill:#090e5c;fill-opacity:1;fill-rule:nonzero;stroke:none;stroke-width:0.1"
       d="M 111.515,102.117 H 94.2207 c -0.2766,0 -0.5,0.224 -0.5,0.5 0,0.277 0.2234,0.5 0.5,0.5 h 16.2943 v 17.313 c 0,0.276 0.223,0.5 0.5,0.5 0.276,0 0.5,-0.224 0.5,-0.5 v -18.313" /><path
       inkscape:connector-curvature="0"
       id="path354"
       style="fill:#090e5c;fill-opacity:1;fill-rule:nonzero;stroke:none;stroke-width:0.1"
       d="m 94.3145,104.498 c -1.0379,0 -1.8797,-0.842 -1.8797,-1.88 0,-1.038 0.8418,-1.88 1.8797,-1.88 1.0382,0 1.88,0.842 1.88,1.88 0,1.038 -0.8418,1.88 -1.88,1.88" /><path
       inkscape:connector-curvature="0"
       id="path356"
       style="fill:#8a0736;fill-opacity:1;fill-rule:nonzero;stroke:none;stroke-width:0.1"
       d="m 83.8703,270.841 c -1.3519,0 -2.4519,-1.1 -2.4519,-2.452 0,-1.352 1.1,-2.452 2.4519,-2.452 1.3524,0 2.452,1.1 2.452,2.452 0,1.352 -1.0996,2.452 -2.452,2.452 z m 0,-5.904 c -1.9031,0 -3.4519,1.549 -3.4519,3.452 0,1.903 1.5488,3.452 3.4519,3.452 1.9035,0 3.452,-1.549 3.452,-3.452 0,-1.903 -1.5485,-3.452 -3.452,-3.452" /><path
       inkscape:connector-curvature="0"
       id="path358"
       style="fill:#e0e0e0;fill-opacity:1;fill-rule:nonzero;stroke:none;stroke-width:0.1"
       d="m 86.8223,278.226 c 0,-1.63 -1.3215,-2.952 -2.952,-2.952 -1.6305,0 -2.9519,1.322 -2.9519,2.952 0,1.63 1.3214,2.952 2.9519,2.952 1.6305,0 2.952,-1.322 2.952,-2.952" /><path
       inkscape:connector-curvature="0"
       id="path360"
       style="fill:#4ac1ab;fill-opacity:1;fill-rule:nonzero;stroke:none;stroke-width:0.1"
       d="m 83.8703,280.678 c -1.3519,0 -2.4519,-1.1 -2.4519,-2.452 0,-1.352 1.1,-2.452 2.4519,-2.452 1.3524,0 2.452,1.1 2.452,2.452 0,1.352 -1.0996,2.452 -2.452,2.452 z m 0,-5.904 c -1.9031,0 -3.4519,1.549 -3.4519,3.452 0,1.903 1.5488,3.452 3.4519,3.452 1.9035,0 3.452,-1.549 3.452,-3.452 0,-1.903 -1.5485,-3.452 -3.452,-3.452" /><path
       inkscape:connector-curvature="0"
       id="path362"
       style="fill:#700526;fill-opacity:1;fill-rule:nonzero;stroke:none;stroke-width:0.1"
       d="m 384.325,124.307 c -1.352,0 -2.452,-1.1 -2.452,-2.452 0,-1.353 1.1,-2.453 2.452,-2.453 1.352,0 2.452,1.1 2.452,2.453 0,1.352 -1.1,2.452 -2.452,2.452 z m 0,-5.905 c -1.903,0 -3.452,1.549 -3.452,3.453 0,1.903 1.549,3.452 3.452,3.452 1.903,0 3.452,-1.549 3.452,-3.452 0,-1.904 -1.549,-3.453 -3.452,-3.453" /><path
       inkscape:connector-curvature="0"
       id="path364"
       style="fill:#e0e0e0;fill-opacity:1;fill-rule:nonzero;stroke:none;stroke-width:0.1"
       d="m 387.277,131.691 c 0,-1.63 -1.322,-2.951 -2.952,-2.951 -1.63,0 -2.952,1.321 -2.952,2.951 0,1.631 1.322,2.952 2.952,2.952 1.63,0 2.952,-1.321 2.952,-2.952" /><path
       inkscape:connector-curvature="0"
       id="path366"
       style="fill:#090e5c;fill-opacity:1;fill-rule:nonzero;stroke:none;stroke-width:0.1"
       d="m 384.325,134.144 c -1.352,0 -2.452,-1.1 -2.452,-2.453 0,-1.352 1.1,-2.452 2.452,-2.452 1.352,0 2.452,1.1 2.452,2.452 0,1.353 -1.1,2.453 -2.452,2.453 z m 0,-5.905 c -1.903,0 -3.452,1.549 -3.452,3.452 0,1.904 1.549,3.453 3.452,3.453 1.903,0 3.452,-1.549 3.452,-3.453 0,-1.903 -1.549,-3.452 -3.452,-3.452" /><path
       inkscape:connector-curvature="0"
       id="path368"
       style="fill:#4ac1ab;fill-opacity:1;fill-rule:nonzero;stroke:none;stroke-width:0.1"
       d="M 118.666,260.347 H 104.21 v 41.708 c 0,0.276 0.224,0.5 0.5,0.5 0.276,0 0.5,-0.224 0.5,-0.5 v -40.708 h 13.456 c 0.277,0 0.5,-0.224 0.5,-0.5 0,-0.277 -0.223,-0.5 -0.5,-0.5" /><path
       inkscape:connector-curvature="0"
       id="path370"
       style="fill:#4ac1ab;fill-opacity:1;fill-rule:nonzero;stroke:none;stroke-width:0.1"
       d="m 118.573,258.967 c 1.038,0 1.879,0.842 1.879,1.88 0,1.038 -0.841,1.88 -1.879,1.88 -1.039,0 -1.88,-0.842 -1.88,-1.88 0,-1.038 0.841,-1.88 1.88,-1.88" /><path
       inkscape:connector-curvature="0"
       id="path372"
       style="fill:#e0e0e0;fill-opacity:1;fill-rule:nonzero;stroke:none;stroke-width:0.1"
       d="m 107.662,302.055 c 0,-1.631 -1.322,-2.952 -2.952,-2.952 -1.63,0 -2.952,1.321 -2.952,2.952 0,1.63 1.322,2.952 2.952,2.952 1.63,0 2.952,-1.322 2.952,-2.952" /><path
       inkscape:connector-curvature="0"
       id="path374"
       style="fill:#700526;fill-opacity:1;fill-rule:nonzero;stroke:none;stroke-width:0.1"
       d="m 104.71,304.507 c -1.352,0 -2.452,-1.1 -2.452,-2.452 0,-1.352 1.1,-2.452 2.452,-2.452 1.352,0 2.452,1.1 2.452,2.452 0,1.352 -1.1,2.452 -2.452,2.452 z m 0,-5.904 c -1.903,0 -3.452,1.548 -3.452,3.452 0,1.903 1.549,3.452 3.452,3.452 1.903,0 3.452,-1.549 3.452,-3.452 0,-1.904 -1.549,-3.452 -3.452,-3.452" /><path
       inkscape:connector-curvature="0"
       id="path376"
       style="fill:#700526;fill-opacity:1;fill-rule:nonzero;stroke:none;stroke-width:0.1"
       d="m 138.629,450.021 c 0,-1.63 -1.322,-2.952 -2.952,-2.952 -1.63,0 -2.952,1.322 -2.952,2.952 0,1.631 1.322,2.952 2.952,2.952 1.63,0 2.952,-1.321 2.952,-2.952" /><path
       inkscape:connector-curvature="0"
       id="path378"
       style="fill:#700526;fill-opacity:1;fill-rule:nonzero;stroke:none;stroke-width:0.1"
       d="m 135.677,452.473 c -1.352,0 -2.452,-1.1 -2.452,-2.452 0,-1.352 1.1,-2.452 2.452,-2.452 1.352,0 2.452,1.1 2.452,2.452 0,1.352 -1.1,2.452 -2.452,2.452 z m 0,-5.904 c -1.903,0 -3.452,1.549 -3.452,3.452 0,1.903 1.549,3.452 3.452,3.452 1.903,0 3.452,-1.549 3.452,-3.452 0,-1.903 -1.549,-3.452 -3.452,-3.452" /><path
       inkscape:connector-curvature="0"
       id="path380"
       style="fill:#700526;fill-opacity:1;fill-rule:nonzero;stroke:none;stroke-width:0.1"
       d="m 160.456,450.021 c 0,-1.63 -1.322,-2.952 -2.952,-2.952 -1.63,0 -2.952,1.322 -2.952,2.952 0,1.631 1.322,2.952 2.952,2.952 1.63,0 2.952,-1.321 2.952,-2.952" /><path
       inkscape:connector-curvature="0"
       id="path382"
       style="fill:#700526;fill-opacity:1;fill-rule:nonzero;stroke:none;stroke-width:0.1"
       d="m 157.504,452.473 c -1.352,0 -2.452,-1.1 -2.452,-2.452 0,-1.352 1.1,-2.452 2.452,-2.452 1.352,0 2.452,1.1 2.452,2.452 0,1.352 -1.1,2.452 -2.452,2.452 z m 0,-5.904 c -1.904,0 -3.452,1.549 -3.452,3.452 0,1.903 1.548,3.452 3.452,3.452 1.903,0 3.452,-1.549 3.452,-3.452 0,-1.903 -1.549,-3.452 -3.452,-3.452" /><path
       inkscape:connector-curvature="0"
       id="path384"
       style="fill:#4ac1ab;fill-opacity:1;fill-rule:nonzero;stroke:none;stroke-width:0.1"
       d="m 168.417,452.473 c -1.352,0 -2.451,-1.1 -2.451,-2.452 0,-1.352 1.099,-2.452 2.451,-2.452 1.353,0 2.453,1.1 2.453,2.452 0,1.352 -1.1,2.452 -2.453,2.452 z m 0,-5.904 c -1.903,0 -3.451,1.549 -3.451,3.452 0,1.903 1.548,3.452 3.451,3.452 1.904,0 3.453,-1.549 3.453,-3.452 0,-1.903 -1.549,-3.452 -3.453,-3.452" /><path
       inkscape:connector-curvature="0"
       id="path386"
       style="fill:#700526;fill-opacity:1;fill-rule:nonzero;stroke:none;stroke-width:0.1"
       d="m 149.542,450.021 c 0,-1.63 -1.321,-2.952 -2.952,-2.952 -1.63,0 -2.951,1.322 -2.951,2.952 0,1.631 1.321,2.952 2.951,2.952 1.631,0 2.952,-1.321 2.952,-2.952" /><path
       inkscape:connector-curvature="0"
       id="path388"
       style="fill:#700526;fill-opacity:1;fill-rule:nonzero;stroke:none;stroke-width:0.1"
       d="m 146.59,452.473 c -1.352,0 -2.451,-1.1 -2.451,-2.452 0,-1.352 1.099,-2.452 2.451,-2.452 1.352,0 2.452,1.1 2.452,2.452 0,1.352 -1.1,2.452 -2.452,2.452 z m 0,-5.904 c -1.903,0 -3.451,1.549 -3.451,3.452 0,1.903 1.548,3.452 3.451,3.452 1.904,0 3.452,-1.549 3.452,-3.452 0,-1.903 -1.548,-3.452 -3.452,-3.452" /><path
       inkscape:connector-curvature="0"
       id="path390"
       style="fill:#4ac1ab;fill-opacity:1;fill-rule:nonzero;stroke:none;stroke-width:0.1"
       d="m 425.437,351.679 h -12.332 c -0.277,0 -0.5,0.223 -0.5,0.5 0,0.276 0.223,0.5 0.5,0.5 h 11.332 v 60.86 h -50.091 c -0.276,0 -0.5,0.224 -0.5,0.5 0,0.277 0.224,0.5 0.5,0.5 h 51.091 v -62.86" /><path
       inkscape:connector-curvature="0"
       id="path392"
       style="fill:#4ac1ab;fill-opacity:1;fill-rule:nonzero;stroke:none;stroke-width:0.1"
       d="m 374.44,415.919 c -1.038,0 -1.88,-0.842 -1.88,-1.88 0,-1.038 0.842,-1.88 1.88,-1.88 1.038,0 1.88,0.842 1.88,1.88 0,1.038 -0.842,1.88 -1.88,1.88" /><path
       inkscape:connector-curvature="0"
       id="path394"
       style="fill:#4ac1ab;fill-opacity:1;fill-rule:nonzero;stroke:none;stroke-width:0.1"
       d="m 424.937,312.874 c -0.276,0 -0.5,0.224 -0.5,0.5 v 38.805 c 0,0.276 0.224,0.5 0.5,0.5 0.276,0 0.5,-0.224 0.5,-0.5 v -38.805 c 0,-0.276 -0.224,-0.5 -0.5,-0.5" /><path
       inkscape:connector-curvature="0"
       id="path396"
       style="fill:#4ac1ab;fill-opacity:1;fill-rule:nonzero;stroke:none;stroke-width:0.1"
       d="m 423.057,313.469 c 0,-1.039 0.842,-1.88 1.88,-1.88 1.038,0 1.88,0.841 1.88,1.88 0,1.038 -0.842,1.879 -1.88,1.879 -1.038,0 -1.88,-0.841 -1.88,-1.879" /><path
       inkscape:connector-curvature="0"
       id="path398"
       style="fill:#090e5c;fill-opacity:1;fill-rule:nonzero;stroke:none;stroke-width:0.1"
       d="m 446.531,215.66 h -11.876 c -0.276,0 -0.5,0.224 -0.5,0.5 0,0.276 0.224,0.5 0.5,0.5 h 10.876 v 114.724 h -20.594 c -0.276,0 -0.5,0.223 -0.5,0.5 0,0.276 0.224,0.5 0.5,0.5 h 21.594 V 215.66" /><path
       inkscape:connector-curvature="0"
       id="path400"
       style="fill:#090e5c;fill-opacity:1;fill-rule:nonzero;stroke:none;stroke-width:0.1"
       d="m 434.749,218.04 c -1.038,0 -1.88,-0.842 -1.88,-1.88 0,-1.038 0.842,-1.88 1.88,-1.88 1.038,0 1.88,0.842 1.88,1.88 0,1.038 -0.842,1.88 -1.88,1.88" /><path
       inkscape:connector-curvature="0"
       id="path402"
       style="fill:#4ac1ab;fill-opacity:1;fill-rule:nonzero;stroke:none;stroke-width:0.1"
       d="m 321.442,411.734 c -0.277,0 -0.5,0.223 -0.5,0.5 v 28.855 H 126.881 v -24.268 c 0,-0.276 -0.224,-0.5 -0.5,-0.5 -0.277,0 -0.5,0.224 -0.5,0.5 v 25.268 h 196.061 v -29.855 c 0,-0.277 -0.224,-0.5 -0.5,-0.5" /><path
       inkscape:connector-curvature="0"
       id="path404"
       style="fill:#4ac1ab;fill-opacity:1;fill-rule:nonzero;stroke:none;stroke-width:0.1"
       d="m 319.562,412.328 c 0,-1.038 0.841,-1.88 1.88,-1.88 1.038,0 1.879,0.842 1.879,1.88 0,1.038 -0.841,1.88 -1.879,1.88 -1.039,0 -1.88,-0.842 -1.88,-1.88" /><path
       inkscape:connector-curvature="0"
       id="path406"
       style="fill:#4ac1ab;fill-opacity:1;fill-rule:nonzero;stroke:none;stroke-width:0.1"
       d="m 215.596,417.58 c -0.276,0 -0.5,0.224 -0.5,0.5 v 23.509 c 0,0.277 0.224,0.5 0.5,0.5 0.276,0 0.5,-0.223 0.5,-0.5 V 418.08 c 0,-0.276 -0.224,-0.5 -0.5,-0.5" /><path
       inkscape:connector-curvature="0"
       id="path408"
       style="fill:#4ac1ab;fill-opacity:1;fill-rule:nonzero;stroke:none;stroke-width:0.1"
       d="m 213.716,418.175 c 0,-1.039 0.842,-1.88 1.88,-1.88 1.038,0 1.88,0.841 1.88,1.88 0,1.038 -0.842,1.879 -1.88,1.879 -1.038,0 -1.88,-0.841 -1.88,-1.879" /><path
       inkscape:connector-curvature="0"
       id="path410"
       style="fill:#700526;fill-opacity:1;fill-rule:nonzero;stroke:none;stroke-width:0.1"
       d="m 239.901,429.442 h 6.164 v 6.164 h -6.164 z m 7.164,-1 h -8.164 v 8.164 h 8.164 v -8.164" /><path
       inkscape:connector-curvature="0"
       id="path412"
       style="fill:#700526;fill-opacity:1;fill-rule:nonzero;stroke:none;stroke-width:0.1"
       d="m 239.754,428.588 -0.707,0.707 7.164,7.165 0.707,-0.707 -7.164,-7.165" /><path
       inkscape:connector-curvature="0"
       id="path414"
       style="fill:#700526;fill-opacity:1;fill-rule:nonzero;stroke:none;stroke-width:0.1"
       d="m 413.589,401.119 h 6.164 v 6.165 h -6.164 z m 7.164,-1 h -8.164 v 8.165 h 8.164 v -8.165" /><path
       inkscape:connector-curvature="0"
       id="path416"
       style="fill:#700526;fill-opacity:1;fill-rule:nonzero;stroke:none;stroke-width:0.1"
       d="m 413.443,400.266 -0.707,0.707 7.164,7.164 0.707,-0.707 -7.164,-7.164" /><path
       inkscape:connector-curvature="0"
       id="path418"
       style="fill:#700526;fill-opacity:1;fill-rule:nonzero;stroke:none;stroke-width:0.1"
       d="m 413.589,390.173 h 6.164 v 6.164 h -6.164 z m 7.164,-1 h -8.164 v 8.164 h 8.164 v -8.164" /><path
       inkscape:connector-curvature="0"
       id="path420"
       style="fill:#090e5c;fill-opacity:1;fill-rule:nonzero;stroke:none;stroke-width:0.1"
       d="m 420.839,107.806 h -82.981 v 10.979 c 0,0.277 0.224,0.5 0.5,0.5 0.277,0 0.5,-0.223 0.5,-0.5 v -9.979 h 80.981 v 12.565 c 0,0.277 0.224,0.5 0.5,0.5 0.277,0 0.5,-0.223 0.5,-0.5 v -13.565" /><path
       inkscape:connector-curvature="0"
       id="path422"
       style="fill:#090e5c;fill-opacity:1;fill-rule:nonzero;stroke:none;stroke-width:0.1"
       d="m 340.238,118.692 c 0,1.038 -0.842,1.88 -1.88,1.88 -1.038,0 -1.88,-0.842 -1.88,-1.88 0,-1.038 0.842,-1.88 1.88,-1.88 1.038,0 1.88,0.842 1.88,1.88" /><path
       inkscape:connector-curvature="0"
       id="path424"
       style="fill:#090e5c;fill-opacity:1;fill-rule:nonzero;stroke:none;stroke-width:0.1"
       d="m 327.614,119.93 h -32.201 c -0.276,0 -0.5,0.223 -0.5,0.5 0,0.276 0.224,0.5 0.5,0.5 h 32.201 c 0.276,0 0.5,-0.224 0.5,-0.5 0,-0.277 -0.224,-0.5 -0.5,-0.5" /><path
       inkscape:connector-curvature="0"
       id="path426"
       style="fill:#090e5c;fill-opacity:1;fill-rule:nonzero;stroke:none;stroke-width:0.1"
       d="m 327.52,118.549 c 1.038,0 1.88,0.842 1.88,1.88 0,1.038 -0.842,1.88 -1.88,1.88 -1.038,0 -1.88,-0.842 -1.88,-1.88 0,-1.038 0.842,-1.88 1.88,-1.88" /><path
       inkscape:connector-curvature="0"
       id="path428"
       style="fill:#090e5c;fill-opacity:1;fill-rule:nonzero;stroke:none;stroke-width:0.1"
       d="m 384.325,143.105 c -0.277,0 -0.5,0.224 -0.5,0.5 v 40.292 c 0,0.276 0.223,0.5 0.5,0.5 0.276,0 0.5,-0.224 0.5,-0.5 v -40.292 c 0,-0.276 -0.224,-0.5 -0.5,-0.5" /><path
       inkscape:connector-curvature="0"
       id="path430"
       style="fill:#090e5c;fill-opacity:1;fill-rule:nonzero;stroke:none;stroke-width:0.1"
       d="m 382.445,143.7 c 0,-1.039 0.842,-1.88 1.88,-1.88 1.038,0 1.88,0.841 1.88,1.88 0,1.038 -0.842,1.88 -1.88,1.88 -1.038,0 -1.88,-0.842 -1.88,-1.88" /><path
       inkscape:connector-curvature="0"
       id="path432"
       style="fill:#090e5c;fill-opacity:1;fill-rule:nonzero;stroke:none;stroke-width:0.1"
       d="m 384.325,228.551 c -0.277,0 -0.5,0.223 -0.5,0.5 v 18.104 c 0,0.277 0.223,0.5 0.5,0.5 0.276,0 0.5,-0.223 0.5,-0.5 v -18.104 c 0,-0.277 -0.224,-0.5 -0.5,-0.5" /><path
       inkscape:connector-curvature="0"
       id="path434"
       style="fill:#090e5c;fill-opacity:1;fill-rule:nonzero;stroke:none;stroke-width:0.1"
       d="m 386.205,247.062 c 0,1.038 -0.842,1.88 -1.88,1.88 -1.038,0 -1.88,-0.842 -1.88,-1.88 0,-1.038 0.842,-1.88 1.88,-1.88 1.038,0 1.88,0.842 1.88,1.88" /><path
       inkscape:connector-curvature="0"
       id="path436"
       style="fill:#4ac1ab;fill-opacity:1;fill-rule:nonzero;stroke:none;stroke-width:0.1"
       d="m 403.703,420.144 c -0.276,0 -0.5,0.223 -0.5,0.5 v 14.962 h -72.405 c -0.277,0 -0.5,0.224 -0.5,0.5 0,0.277 0.223,0.5 0.5,0.5 h 73.405 v -15.962 c 0,-0.277 -0.223,-0.5 -0.5,-0.5" /><path
       inkscape:connector-curvature="0"
       id="path438"
       style="fill:#4ac1ab;fill-opacity:1;fill-rule:nonzero;stroke:none;stroke-width:0.1"
       d="m 401.824,420.738 c 0,-1.039 0.842,-1.881 1.88,-1.881 1.038,0 1.88,0.842 1.88,1.881 0,1.037 -0.842,1.879 -1.88,1.879 -1.038,0 -1.88,-0.842 -1.88,-1.879" /><path
       inkscape:connector-curvature="0"
       id="path440"
       style="fill:#4ac1ab;fill-opacity:1;fill-rule:nonzero;stroke:none;stroke-width:0.1"
       d="m 394.066,428.442 h -16.982 c -0.277,0 -0.5,0.224 -0.5,0.5 0,0.276 0.223,0.5 0.5,0.5 h 16.982 c 0.276,0 0.5,-0.224 0.5,-0.5 0,-0.276 -0.224,-0.5 -0.5,-0.5" /><path
       inkscape:connector-curvature="0"
       id="path442"
       style="fill:#4ac1ab;fill-opacity:1;fill-rule:nonzero;stroke:none;stroke-width:0.1"
       d="m 377.178,430.822 c -1.038,0 -1.88,-0.842 -1.88,-1.88 0,-1.038 0.842,-1.88 1.88,-1.88 1.038,0 1.88,0.842 1.88,1.88 0,1.038 -0.842,1.88 -1.88,1.88" /><path
       inkscape:connector-curvature="0"
       id="path444"
       style="fill:#4ac1ab;fill-opacity:1;fill-rule:nonzero;stroke:none;stroke-width:0.1"
       d="m 199.778,432.025 h -65.267 c -0.276,0 -0.5,0.223 -0.5,0.5 0,0.276 0.224,0.5 0.5,0.5 h 65.267 c 0.276,0 0.5,-0.224 0.5,-0.5 0,-0.277 -0.224,-0.5 -0.5,-0.5" /><path
       inkscape:connector-curvature="0"
       id="path446"
       style="fill:#4ac1ab;fill-opacity:1;fill-rule:nonzero;stroke:none;stroke-width:0.1"
       d="m 134.605,434.404 c -1.038,0 -1.88,-0.841 -1.88,-1.88 0,-1.038 0.842,-1.88 1.88,-1.88 1.038,0 1.88,0.842 1.88,1.88 0,1.039 -0.842,1.88 -1.88,1.88" /><path
       inkscape:connector-curvature="0"
       id="path448"
       style="fill:#090e5c;fill-opacity:1;fill-rule:nonzero;stroke:none;stroke-width:0.1"
       d="m 435.484,225.935 c -0.277,0 -0.5,0.223 -0.5,0.5 v 96.142 c 0,0.276 0.223,0.5 0.5,0.5 0.276,0 0.5,-0.224 0.5,-0.5 v -96.142 c 0,-0.277 -0.224,-0.5 -0.5,-0.5" /><path
       inkscape:connector-curvature="0"
       id="path450"
       style="fill:#090e5c;fill-opacity:1;fill-rule:nonzero;stroke:none;stroke-width:0.1"
       d="m 433.604,226.529 c 0,-1.038 0.842,-1.88 1.88,-1.88 1.038,0 1.88,0.842 1.88,1.88 0,1.038 -0.842,1.88 -1.88,1.88 -1.038,0 -1.88,-0.842 -1.88,-1.88" /><path
       inkscape:connector-curvature="0"
       id="path452"
       style="fill:#4ac1ab;fill-opacity:1;fill-rule:nonzero;stroke:none;stroke-width:0.1"
       d="m 58.1969,137.815 c -0.2766,0 -0.5,0.224 -0.5,0.5 v 32.757 h 26.4094 c 0.2765,0 0.5,-0.223 0.5,-0.5 0,-0.276 -0.2235,-0.5 -0.5,-0.5 H 58.6969 v -31.757 c 0,-0.276 -0.2239,-0.5 -0.5,-0.5" /><path
       inkscape:connector-curvature="0"
       id="path454"
       style="fill:#4ac1ab;fill-opacity:1;fill-rule:nonzero;stroke:none;stroke-width:0.1"
       d="m 84.0125,168.692 c 1.0383,0 1.8801,0.842 1.8801,1.88 0,1.038 -0.8418,1.88 -1.8801,1.88 -1.0379,0 -1.8797,-0.842 -1.8797,-1.88 0,-1.038 0.8418,-1.88 1.8797,-1.88" /><path
       inkscape:connector-curvature="0"
       id="path456"
       style="fill:#700526;fill-opacity:1;fill-rule:nonzero;stroke:none;stroke-width:0.1"
       d="m 75.9445,422.064 4.166,-4.551 6.8899,8.208 -2.4215,2.033 -4.5715,-5.446 -1.7308,1.891 -2.3321,-2.135 v 0" /><path
       inkscape:connector-curvature="0"
       id="path458"
       style="fill:#4ac1ab;fill-opacity:1;fill-rule:nonzero;stroke:none;stroke-width:0.1"
       d="m 80.8168,406.98 c -8.6313,0 -15.6539,7.022 -15.6539,15.654 0,8.631 7.0226,15.654 15.6539,15.654 7.9395,0 14.623,-5.938 15.5469,-13.811 0.0324,-0.274 -0.1641,-0.523 -0.4383,-0.555 -0.2746,-0.035 -0.5227,0.164 -0.5551,0.439 -0.8644,7.369 -7.1215,12.927 -14.5535,12.927 -8.0801,0 -14.6539,-6.574 -14.6539,-14.654 0,-8.081 6.5738,-14.654 14.6539,-14.654 8.0805,0 14.6543,6.573 14.6543,14.654 0,0.276 0.2234,0.5 0.5,0.5 0.2766,0 0.5,-0.224 0.5,-0.5 0,-8.632 -7.0223,-15.654 -15.6543,-15.654" /><path
       inkscape:connector-curvature="0"
       id="path460"
       style="fill:#4ac1ab;fill-opacity:1;fill-rule:nonzero;stroke:none;stroke-width:0.1"
       d="m 93.9676,424.381 c 0.0707,-1.036 0.9676,-1.818 2.0035,-1.747 1.0355,0.07 1.818,0.968 1.7473,2.003 -0.0707,1.036 -0.968,1.818 -2.0036,1.748 -1.0355,-0.071 -1.8179,-0.968 -1.7472,-2.004" /><path
       inkscape:connector-curvature="0"
       id="path462"
       style="fill:#4ac1ab;fill-opacity:1;fill-rule:nonzero;stroke:none;stroke-width:0.1"
       d="m 114.563,415.209 c -0.277,0 -0.5,0.224 -0.5,0.5 v 8.781 h -10.281 c -0.277,0 -0.5,0.223 -0.5,0.5 0,0.276 0.223,0.5 0.5,0.5 h 11.281 v -9.781 c 0,-0.276 -0.224,-0.5 -0.5,-0.5" /><path
       inkscape:connector-curvature="0"
       id="path464"
       style="fill:#4ac1ab;fill-opacity:1;fill-rule:nonzero;stroke:none;stroke-width:0.1"
       d="m 112.683,415.803 c 0,-1.038 0.842,-1.88 1.88,-1.88 1.038,0 1.88,0.842 1.88,1.88 0,1.038 -0.842,1.88 -1.88,1.88 -1.038,0 -1.88,-0.842 -1.88,-1.88" /><path
       inkscape:connector-curvature="0"
       id="path466"
       style="fill:#4ac1ab;fill-opacity:1;fill-rule:nonzero;stroke:none;stroke-width:0.1"
       d="M 83.8691,175.78 H 35.8402 v 26.281 c 0,0.276 0.2239,0.5 0.5,0.5 0.2766,0 0.5,-0.224 0.5,-0.5 V 176.78 h 47.0289 c 0.2762,0 0.5,-0.223 0.5,-0.5 0,-0.276 -0.2238,-0.5 -0.5,-0.5" /><path
       inkscape:connector-curvature="0"
       id="path468"
       style="fill:#4ac1ab;fill-opacity:1;fill-rule:nonzero;stroke:none;stroke-width:0.1"
       d="m 38.2203,201.967 c 0,1.038 -0.8418,1.88 -1.8801,1.88 -1.0379,0 -1.8797,-0.842 -1.8797,-1.88 0,-1.038 0.8418,-1.88 1.8797,-1.88 1.0383,0 1.8801,0.842 1.8801,1.88" /><path
       inkscape:connector-curvature="0"
       id="path470"
       style="fill:#4ac1ab;fill-opacity:1;fill-rule:nonzero;stroke:none;stroke-width:0.1"
       d="m 435.484,339.825 c -0.277,0 -0.5,0.223 -0.5,0.5 v 32.554 h 7.16 c 0.276,0 0.5,-0.223 0.5,-0.5 0,-0.276 -0.224,-0.5 -0.5,-0.5 h -6.16 v -31.554 c 0,-0.277 -0.224,-0.5 -0.5,-0.5" /><path
       inkscape:connector-curvature="0"
       id="path472"
       style="fill:#4ac1ab;fill-opacity:1;fill-rule:nonzero;stroke:none;stroke-width:0.1"
       d="m 442.05,370.5 c 1.038,0 1.88,0.841 1.88,1.88 0,1.038 -0.842,1.879 -1.88,1.879 -1.038,0 -1.88,-0.841 -1.88,-1.879 0,-1.039 0.842,-1.88 1.88,-1.88" /><path
       inkscape:connector-curvature="0"
       id="path474"
       style="fill:#090e5c;fill-opacity:1;fill-rule:nonzero;stroke:none;stroke-width:0.1"
       d="m 369.497,74.1371 h -42.202 c -0.277,0 -0.5,0.2231 -0.5,0.5 0,0.2758 0.223,0.5 0.5,0.5 h 41.202 v 33.1689 c 0,0.276 0.224,0.5 0.5,0.5 0.277,0 0.5,-0.224 0.5,-0.5 V 74.1371" /><path
       inkscape:connector-curvature="0"
       id="path476"
       style="fill:#090e5c;fill-opacity:1;fill-rule:nonzero;stroke:none;stroke-width:0.1"
       d="m 327.389,76.516 c -1.038,0 -1.88,-0.8418 -1.88,-1.8801 0,-1.0379 0.842,-1.88 1.88,-1.88 1.038,0 1.88,0.8421 1.88,1.88 0,1.0383 -0.842,1.8801 -1.88,1.8801" /><path
       inkscape:connector-curvature="0"
       id="path478"
       style="fill:#090e5c;fill-opacity:1;fill-rule:nonzero;stroke:none;stroke-width:0.1"
       d="m 205.257,72.818 h -49.733 v 9.459 c 0,0.2769 0.223,0.5 0.5,0.5 0.276,0 0.5,-0.2231 0.5,-0.5 v -8.459 h 48.733 c 0.277,0 0.5,-0.2231 0.5,-0.5 0,-0.2758 -0.223,-0.5 -0.5,-0.5" /><path
       inkscape:connector-curvature="0"
       id="path480"
       style="fill:#090e5c;fill-opacity:1;fill-rule:nonzero;stroke:none;stroke-width:0.1"
       d="m 205.163,71.4391 c 1.039,0 1.88,0.8418 1.88,1.88 0,1.0379 -0.841,1.8801 -1.88,1.8801 -1.038,0 -1.879,-0.8422 -1.879,-1.8801 0,-1.0382 0.841,-1.88 1.879,-1.88" /><path
       inkscape:connector-curvature="0"
       id="path490"
       style="display:none;fill:#a4b7c7;fill-opacity:1;fill-rule:nonzero;stroke:none;stroke-width:0.1"
       d="m 268.17,27.2309 c -0.75,0 -1.361,0.6101 -1.361,1.3601 0,0.75 0.611,1.3602 1.361,1.3602 0.75,0 1.36,-0.6102 1.36,-1.3602 0,-0.75 -0.61,-1.3601 -1.36,-1.3601 z m -4.738,-0.909 c -1.019,0 -1.849,0.8301 -1.849,1.85 0,1.0203 0.83,1.85 1.849,1.85 1.02,0 1.85,-0.8297 1.85,-1.85 0,-1.0199 -0.83,-1.85 -1.85,-1.85 z m 2.16,6.5152 c -3.352,0 -6.08,-2.666 -6.08,-5.943 0,-0.4261 0.046,-0.8492 0.137,-1.2621 0.674,-0.482 2.706,-0.8898 5.348,-0.7308 2.879,0.1738 5.297,0.9578 6.672,2.159 -0.006,0.1949 -0.021,0.3898 -0.045,0.582 -0.38,2.9617 -2.974,5.1949 -6.032,5.1949" /></g></svg>